<svg version="1.2" xmlns="http://www.w3.org/2000/svg" viewBox="0 0 617 342" width="617" height="342">
	<title>Devices-amico (1)-svg</title>
	<style>
		tspan { white-space:pre } 
		.s0 { fill: #f5f5f5 } 
		.s1 { fill: #37474f } 
		.s2 { fill: none;stroke: #ffffff;stroke-linecap: round;stroke-width: 1 } 
		.s3 { fill: #455a64 } 
		.s4 { fill: #c06223 } 
		.s5 { fill: #f0f0f0 } 
		.s6 { fill: #ffffff } 
		.t7 { font-size: 7px;fill: #ffffff;font-weight: 500;font-family: "AsapCondensed-Medium", "Asap Condensed" } 
		.s8 { opacity: .1;fill: #000000 } 
		.s9 { opacity: .2;fill: #ffffff } 
		.s10 { opacity: .2;fill: #000000 } 
		.s11 { fill: #fafafa } 
		.s12 { fill: #000000 } 
		.s13 { opacity: .4;fill: #ffffff } 
		.s14 { opacity: .3;fill: #000000 } 
		.s15 { fill: #263238 } 
		.s16 { fill: #ebebeb } 
	</style>
	<g id="freepik--Floor--inject-64">
		<path id="Layer" class="s0" d="m159.7 139.4c84.1-44 220.5-44 304.6 0 84 43.9 84 115.1-0.1 159.1-84 43.9-220.4 43.9-304.4 0-84.1-44-84.2-115.2-0.1-159.1z"/>
	</g>
	<g id="freepik--Plants--inject-64">
		<path id="Layer" class="s1" d="m131.9 149.3c-1.8-4.6-11.2-9.4-15.7-11.8-4.4-2.4-3-6.1-0.5-7.5 2.4-1.4 9.4-3.1 15.6 3.5 6.2 6.6 6.7 17.8 6.7 17.8z"/>
		<path id="Layer" class="s2" d="m118.4 131.1c3.8 0.9 14.9 6.4 16.7 17.7"/>
		<path id="Layer" class="s3" d="m142 169.4q-0.9 0.6-2 0.8-1.2 0.1-2.3-0.2-1-0.2-1.9-0.9-0.9-0.7-1.5-1.7c-1.7-3.5-5.6-1.1-9.4-1.8-4.3-0.8-4.9-3.1-4.3-5.9 0.7-3.2-1.9-5.1-5.5-6.5-3.6-1.4-8.4-2.2-8.1-4.7 0.3-2.2 4.2-4.8 10.1-3.7 6 1.2 5.3 1.4 10 0.3 4.7-1 7.5 0.8 8 3.6 0 0 14.9 11.6 6.9 20.7z"/>
		<path id="Layer" class="s2" d="m124.9 159.9q0.9-0.8 1.9-1.5 1-0.7 2.1-1.2 1.1-0.5 2.2-0.9 1.2-0.4 2.4-0.6"/>
		<path id="Layer" class="s2" d="m111.2 147.1c6.2 0.1 24.4 6.4 29.4 16.2"/>
	</g>
	<g id="freepik--Watch--inject-64">
		<path id="Layer" class="s1" d="m149.7 209.4v1.1l-13.7 7.9v-1.1l0.5-0.3c-0.7-1.3-3.3-2.9-4.9-3.8l-29.1-16.8q-0.4-0.2-0.8-0.5-0.4-0.3-0.6-0.7-0.3-0.3-0.5-0.8-0.1-0.4-0.2-0.9v-1.1h0.3q0.2-0.2 0.3-0.4 0.2-0.2 0.4-0.4 0.2-0.2 0.4-0.3 0.2-0.2 0.4-0.3 1.1-0.5 2.3-0.8 1.2-0.3 2.4-0.3 1.2 0.1 2.4 0.4 1.2 0.3 2.3 0.8c8.9 5.2 27.3 15.8 29 16.8q0.8 0.5 1.6 0.9 0.8 0.4 1.6 0.8 0.8 0.4 1.7 0.7 0.9 0.2 1.8 0.5z"/>
		<path id="Layer" class="s3" d="m104.5 189q1.2-0.3 2.4-0.2 1.2 0 2.4 0.3 1.2 0.3 2.3 0.9c8.9 5.1 27.3 15.7 29 16.7 2.3 1.4 6.9 3.9 9.1 2.6l-13.7 7.9c2.2-1.2-2.2-4-4.4-5.2l-29.1-16.8c-2.7-1.5-2.8-3.9-0.3-5.4q1.1-0.5 2.3-0.8z"/>
		<path id="Layer" class="s1" d="m151.8 207.2q0.6-0.2 1.2-0.2 0.7 0 1.3 0.2 0.6 0.1 1.1 0.4l17.8 10.3c0.8 0.3 1.4 0.9 1.8 1.6 0.4 0.7 0.6 1.5 0.6 2.4 0 0.8-0.2 1.6-0.6 2.3-0.4 0.7-1 1.3-1.8 1.7l-13.2 7.6q-0.6 0.3-1.2 0.5-0.6 0.1-1.2 0.1-0.7 0-1.3-0.1-0.6-0.2-1.2-0.5l-17.7-10.2c-0.8-0.4-1.4-1-1.8-1.7-0.4-0.7-0.6-1.5-0.6-2.3 0-0.9 0.2-1.7 0.6-2.4 0.4-0.7 1-1.3 1.8-1.6l13.2-7.7q0.6-0.3 1.2-0.4z"/>
		<path id="Layer" class="s4" d="m137.4 215.3l13.2-7.7q0.6-0.3 1.2-0.4 0.6-0.2 1.2-0.2 0.7 0 1.3 0.2 0.6 0.1 1.2 0.4l17.7 10.2c1.4 0.8 1.4 2 0 2.8l-13.2 7.7q-0.6 0.3-1.2 0.4-0.6 0.2-1.2 0.2-0.6 0-1.2-0.2-0.7-0.1-1.2-0.4l-17.8-10.3c-1.4-0.7-1.4-2 0-2.8z"/>
		<path id="Layer" class="s1" d="m214 252.2q0 0.4-0.1 0.8-0.2 0.4-0.4 0.7-0.3 0.3-0.6 0.6-0.3 0.2-0.7 0.4-1.1 0.5-2.2 0.8-1.2 0.3-2.5 0.2-1.2 0-2.3-0.3-1.2-0.3-2.3-0.9c-10.9-6.2-34.5-19.8-35.8-20.7q-0.8-0.5-1.6-0.9-0.8-0.3-1.7-0.5-0.9-0.2-1.8-0.1-0.9 0-1.7 0.2v-1.1l13.8-8v1.1c-1 2.3 0.4 3.2 2 4.1l35.8 20.7q0.3 0.1 0.5 0.3 0.3 0.2 0.5 0.4 0.2 0.2 0.4 0.5 0.2 0.2 0.4 0.5h0.3z"/>
		<path id="Layer" class="s3" d="m165.5 231.8q-0.8-0.4-1.7-0.5-0.8-0.2-1.7-0.2-0.9 0.1-1.8 0.3l13.8-8c-1 2.3 0.5 3.2 2 4l35.9 20.7c2.6 1.6 2.8 4 0.3 5.4q-1.1 0.6-2.3 0.8-1.2 0.3-2.4 0.3-1.2-0.1-2.4-0.4-1.2-0.3-2.3-0.8c-10.9-6.3-34.5-19.9-35.8-20.7q-0.8-0.6-1.6-0.9z"/>
		<path id="Layer" class="s1" d="m202.7 247.6q0.3-0.1 0.5-0.1 0.3 0 0.5 0.1 0.3 0 0.5 0.1 0.2 0.1 0.3 0.2 0.1 0.2 0.1 0.4 0 0.2-0.1 0.3-0.1 0.2-0.3 0.3-0.2 0.1-0.5 0.1-0.2 0.1-0.5 0.1-0.2 0-0.5-0.1-0.2 0-0.4-0.1-0.2-0.1-0.3-0.3-0.2-0.1-0.2-0.3 0-0.2 0.2-0.4 0.1-0.1 0.3-0.2 0.2-0.1 0.4-0.1z"/>
		<path id="Layer" class="s1" d="m195.9 243.6q0.3 0 0.5 0 0.3 0 0.5 0 0.3 0.1 0.5 0.2 0.2 0.1 0.3 0.2 0.1 0.2 0.1 0.4 0 0.2-0.1 0.3-0.1 0.2-0.3 0.2-0.2 0.2-0.5 0.2-0.2 0.1-0.5 0.1-0.2 0-0.5-0.1-0.2 0-0.4-0.2-0.2 0-0.3-0.2-0.1-0.1-0.1-0.3 0-0.2 0.1-0.4 0.1-0.1 0.3-0.2 0.2-0.1 0.4-0.2z"/>
		<path id="Layer" class="s1" d="m189.2 239.7q0.2 0 0.5 0 0.2 0 0.5 0 0.2 0.1 0.4 0.2 0.2 0.1 0.3 0.2 0.1 0.2 0.1 0.4 0 0.2-0.1 0.3-0.1 0.2-0.3 0.2-0.2 0.2-0.4 0.2-0.3 0.1-0.5 0.1-0.3 0-0.5-0.1-0.3 0-0.5-0.2-0.2 0-0.3-0.2-0.1-0.1-0.1-0.3 0-0.2 0.1-0.4 0.1-0.1 0.3-0.2 0.2-0.1 0.5-0.2z"/>
		<path id="Layer" class="s1" d="m182.4 235.8q0.2 0 0.5 0 0.2 0 0.5 0 0.2 0.1 0.5 0.2 0.1 0.1 0.3 0.2 0.1 0.2 0.1 0.4 0 0.2-0.1 0.3-0.2 0.2-0.3 0.2-0.3 0.1-0.5 0.2-0.3 0.1-0.5 0.1-0.3 0-0.5-0.1-0.3-0.1-0.5-0.2-0.2 0-0.3-0.2-0.1-0.1-0.1-0.3 0-0.2 0.1-0.4 0.1-0.1 0.3-0.2 0.2-0.1 0.5-0.2z"/>
		<path id="Layer" class="s1" d="m175.6 231.9q0.3 0 0.5 0 0.3 0 0.5 0 0.3 0.1 0.5 0.2 0.2 0.1 0.3 0.2 0.1 0.2 0.1 0.4 0 0.2-0.1 0.3-0.1 0.2-0.3 0.2-0.2 0.2-0.5 0.2-0.2 0.1-0.5 0.1-0.2 0-0.5-0.1-0.2 0-0.5-0.2-0.1 0-0.3-0.2-0.1-0.1-0.1-0.3 0-0.2 0.1-0.4 0.2-0.1 0.3-0.2 0.3-0.1 0.5-0.2z"/>
		<path id="Layer" class="s5" d="m157.6 228.3q-0.3 0-0.6 0-0.3 0-0.5-0.1-0.3-0.1-0.6-0.2-0.2-0.1-0.5-0.2l-17.7-10.3c-0.5-0.2-0.8-0.5-0.8-0.9 0-0.3 0.3-0.6 0.8-0.9l13.2-7.6q0.5-0.3 1-0.4 0.6-0.1 1.1-0.1 0.6 0 1.1 0.1 0.6 0.1 1.1 0.4l17.8 10.2c0.5 0.3 0.7 0.6 0.7 0.9 0 0.3-0.2 0.7-0.7 0.9l-13.3 7.7q-0.2 0.1-0.5 0.2-0.2 0.1-0.5 0.2-0.3 0.1-0.6 0.1-0.3 0-0.5 0z"/>
		<path id="Layer" fill-rule="evenodd" class="s6" d="m153.6 207q0.4 0.1 0.7 0.1 0.3 0.1 0.6 0.2 0.3 0.1 0.5 0.3l17.8 10.2c1.3 0.8 1.3 2.1 0 2.8l-13.3 7.7q-0.5 0.3-1.1 0.4-0.7 0.2-1.3 0.2-0.6 0-1.2-0.2-0.6-0.1-1.2-0.4l-17.8-10.3c-1.3-0.8-1.3-2 0-2.8l13.3-7.6q0.3-0.2 0.6-0.3 0.3-0.1 0.6-0.2 0.3 0 0.6-0.1 0.3 0 0.6 0 0.3 0 0.6 0zm-0.6 1.1q0 0 0 0 0 0 0 0zm0.1 0q-0.3 0-0.5 0-0.2 0.1-0.5 0.1-0.2 0.1-0.4 0.2-0.3 0-0.5 0.1l-13.2 7.7c-0.4 0.2-0.5 0.4-0.5 0.4 0 0.1 0.1 0.2 0.5 0.5l17.7 10.2q0.4 0.2 0.9 0.3 0.5 0.2 1 0.2 0.4 0 0.9-0.2 0.5-0.1 0.9-0.3l13.3-7.6c0.3-0.2 0.4-0.4 0.4-0.5 0 0-0.1-0.2-0.4-0.4l-17.8-10.3q-0.2-0.1-0.4-0.1-0.3-0.1-0.5-0.2-0.2 0-0.5-0.1-0.2 0-0.4 0z"/>
		<path id="Layer" class="s1" d="m140.5 208.2l13.2-7.6q0.6-0.3 1.2-0.5 0.6-0.1 1.3-0.1 0.6 0 1.2 0.1 0.6 0.2 1.2 0.5l17.7 10.2c1.4 0.8 1.4 2 0 2.8l-13.2 7.7q-0.6 0.3-1.2 0.4-0.6 0.2-1.2 0.2-0.7 0-1.3-0.2-0.6-0.1-1.1-0.4l-17.8-10.3c-1.3-0.7-1.3-2 0-2.8z"/>
		<text id="12:00" style="transform: matrix(1,-0.58,.87,.5,153.09,216.49)" >
			<tspan x="0" y="0" class="t7">12:00
</tspan>
		</text>
	</g>
	<g id="freepik--Mobile--inject-64">
		<path id="Layer" class="s4" d="m264.8 204.6q0.6-0.2 1.2-0.2 0.6 0 1.2 0.2 0.7 0.1 1.2 0.4l58.5 33.8c0.7 0.3 1.3 0.9 1.7 1.6 0.5 0.7 0.7 1.5 0.7 2.4 0 0.8-0.2 1.6-0.7 2.3-0.4 0.7-1 1.3-1.7 1.7l-31.4 18q-0.5 0.3-1.1 0.5-0.7 0.1-1.3 0.1-0.6 0-1.2-0.1-0.6-0.2-1.2-0.5l-58.4-33.7c-0.8-0.4-1.4-1-1.8-1.7-0.4-0.7-0.6-1.5-0.6-2.3 0-0.8 0.2-1.6 0.6-2.3 0.4-0.8 1-1.3 1.8-1.7l31.3-18.1q0.6-0.3 1.2-0.4z"/>
		<path id="Layer" class="s4" d="m264.8 204.6q0.6-0.2 1.2-0.2 0.6 0 1.2 0.2 0.7 0.1 1.2 0.4l58.5 33.8c0.7 0.3 1.3 0.9 1.7 1.6 0.5 0.7 0.7 1.5 0.7 2.4 0 0.8-0.2 1.6-0.7 2.3-0.4 0.7-1 1.3-1.7 1.7l-31.4 18q-0.5 0.3-1.1 0.5-0.7 0.1-1.3 0.1-0.6 0-1.2-0.1-0.6-0.2-1.2-0.5l-58.4-33.7c-0.8-0.4-1.4-1-1.8-1.7-0.4-0.7-0.6-1.5-0.6-2.3 0-0.8 0.2-1.6 0.6-2.3 0.4-0.8 1-1.3 1.8-1.7l31.3-18.1q0.6-0.3 1.2-0.4z"/>
		<path id="Layer" class="s4" d="m264.8 204.6q0.6-0.2 1.2-0.2 0.6 0 1.2 0.2 0.7 0.1 1.2 0.4l58.5 33.8c0.7 0.3 1.3 0.9 1.7 1.6 0.5 0.7 0.7 1.5 0.7 2.4 0 0.8-0.2 1.6-0.7 2.3-0.4 0.7-1 1.3-1.7 1.7l-31.4 18q-0.5 0.3-1.1 0.5-0.7 0.1-1.3 0.1-0.6 0-1.2-0.1-0.6-0.2-1.2-0.5l-58.4-33.7c-0.8-0.4-1.4-1-1.8-1.7-0.4-0.7-0.6-1.5-0.6-2.3 0-0.8 0.2-1.6 0.6-2.3 0.4-0.8 1-1.3 1.8-1.7l31.3-18.1q0.6-0.3 1.2-0.4z"/>
		<path id="Layer" class="s8" d="m264.8 204.6q0.6-0.2 1.2-0.2 0.6 0 1.2 0.2 0.7 0.1 1.2 0.4l58.5 33.8c0.7 0.3 1.3 0.9 1.7 1.6 0.5 0.7 0.7 1.5 0.7 2.4 0 0.8-0.2 1.6-0.7 2.3-0.4 0.7-1 1.3-1.7 1.7l-31.4 18q-0.5 0.3-1.1 0.5-0.7 0.1-1.3 0.1-0.6 0-1.2-0.1-0.6-0.2-1.2-0.5l-58.4-33.7c-0.8-0.4-1.4-1-1.8-1.7-0.4-0.7-0.6-1.5-0.6-2.3 0-0.8 0.2-1.6 0.6-2.3 0.4-0.8 1-1.3 1.8-1.7l31.3-18.1q0.6-0.3 1.2-0.4z"/>
		<path id="Layer" class="s4" d="m293.1 265.4q-0.3 0-0.6 0-0.3-0.1-0.6-0.1-0.3-0.1-0.6-0.2-0.3-0.1-0.6-0.3l-58.4-33.7c-0.8-0.4-1.4-1-1.8-1.7-0.4-0.7-0.6-1.5-0.6-2.3 0-0.8 0.2-1.6 0.6-2.3 0.4-0.8 1-1.3 1.8-1.7l31.3-18.1q0.6-0.3 1.2-0.4 0.6-0.2 1.2-0.2 0.6 0 1.2 0.2 0.7 0.1 1.2 0.4l24.7 14.3z"/>
		<path id="Layer" class="s4" d="m290.7 259.6l-58.4-33.8c-1.4-0.7-1.4-2 0-2.7l31.3-18.1q0.6-0.3 1.2-0.4 0.6-0.2 1.2-0.2 0.6 0 1.2 0.2 0.7 0.1 1.2 0.4l58.5 33.7c1.3 0.8 1.3 2 0 2.8l-31.4 18.1q-0.5 0.3-1.1 0.4-0.6 0.2-1.3 0.2-0.6 0-1.2-0.2-0.6-0.1-1.2-0.4z"/>
		<path id="Layer" class="s4" d="m290.7 259.6l-58.4-33.8c-1.4-0.7-1.4-2 0-2.7l31.3-18.1q0.6-0.3 1.2-0.4 0.6-0.2 1.2-0.2 0.6 0 1.2 0.2 0.7 0.1 1.2 0.4l58.5 33.7c1.3 0.8 1.3 2 0 2.8l-31.4 18.1q-0.5 0.3-1.1 0.4-0.6 0.2-1.3 0.2-0.6 0-1.2-0.2-0.6-0.1-1.2-0.4z"/>
		<path id="Layer" class="s4" d="m290.7 259.6l-58.4-33.8c-1.4-0.7-1.4-2 0-2.7l31.3-18.1q0.6-0.3 1.2-0.4 0.6-0.2 1.2-0.2 0.6 0 1.2 0.2 0.7 0.1 1.2 0.4l58.5 33.7c1.3 0.8 1.3 2 0 2.8l-31.4 18.1q-0.5 0.3-1.1 0.4-0.6 0.2-1.3 0.2-0.6 0-1.2-0.2-0.6-0.1-1.2-0.4z"/>
		<path id="Layer" class="s9" d="m290.7 259.6l-58.4-33.8c-1.4-0.7-1.4-2 0-2.7l31.3-18.1q0.6-0.3 1.2-0.4 0.6-0.2 1.2-0.2 0.6 0 1.2 0.2 0.7 0.1 1.2 0.4l58.5 33.7c1.3 0.8 1.3 2 0 2.8l-31.4 18.1q-0.5 0.3-1.1 0.4-0.6 0.2-1.3 0.2-0.6 0-1.2-0.2-0.6-0.1-1.2-0.4z"/>
		<path id="Layer" class="s6" d="m239.9 226.5l29.7-17.1q0.2-0.1 0.4-0.2 0.3-0.1 0.5-0.1 0.3 0 0.5 0.1 0.3 0.1 0.5 0.2l47.8 27.6q0.1 0.1 0.3 0.2 0.1 0.2 0.1 0.4 0 0.1-0.1 0.3-0.2 0.1-0.3 0.2l-29.7 17.2q-0.3 0.1-0.5 0.1-0.2 0.1-0.5 0.1-0.2 0-0.5-0.1-0.2 0-0.5-0.1l-47.7-27.6q-0.2-0.1-0.4-0.2-0.1-0.2-0.1-0.4 0-0.2 0.1-0.4 0.2-0.1 0.4-0.2z"/>
		<path id="Layer" class="s4" d="m309.3 249.4q-0.4 0.2-0.8 0.3-0.4 0.1-0.8 0.1-0.4 0-0.8-0.1-0.4-0.1-0.7-0.3c-0.9-0.5-0.9-1.3 0-1.8q0.3-0.2 0.7-0.3 0.4 0 0.8 0 0.4 0 0.8 0 0.4 0.1 0.8 0.3c0.8 0.5 0.8 1.3 0 1.8z"/>
		<path id="Layer" class="s8" d="m309.3 249.4q-0.4 0.2-0.8 0.3-0.4 0.1-0.8 0.1-0.4 0-0.8-0.1-0.4-0.1-0.7-0.3c-0.9-0.5-0.9-1.3 0-1.8q0.3-0.2 0.7-0.3 0.4 0 0.8 0 0.4 0 0.8 0 0.4 0.1 0.8 0.3c0.8 0.5 0.8 1.3 0 1.8z"/>
		<path id="Layer" class="s4" d="m250.4 215.4q-0.1 0.1-0.2 0.1-0.1 0-0.2 0-0.1 0-0.2 0-0.1 0-0.2-0.1-0.1 0-0.1-0.1-0.1 0-0.1-0.1 0-0.1 0.1-0.1 0-0.1 0.1-0.1 0.1-0.1 0.2-0.1 0.1 0 0.2 0 0.1 0 0.2 0 0.1 0 0.2 0.1 0.1 0 0.1 0.1 0 0 0 0.1 0 0.1 0 0.1 0 0.1-0.1 0.1z"/>
		<path id="Layer" class="s4" d="m249.1 219q-0.2 0.1-0.4 0.1-0.2 0.1-0.4 0.1-0.2 0-0.4-0.1-0.2 0-0.4-0.1-0.1-0.1-0.2-0.2-0.1-0.1-0.1-0.3 0-0.1 0.1-0.2 0.1-0.2 0.2-0.2 0.2-0.1 0.4-0.1 0.2-0.1 0.4-0.1 0.2 0 0.4 0.1 0.2 0 0.4 0.1 0.2 0 0.3 0.2 0.1 0.1 0.1 0.2 0 0.2-0.1 0.3-0.1 0.1-0.3 0.2z"/>
		<path id="Layer" class="s4" d="m250.2 217.4c-0.2-0.2-0.2-0.4 0-0.6l5.2-3q0.1-0.1 0.3-0.1 0.1 0 0.3 0 0.1 0 0.2 0 0.2 0 0.3 0.1c0.3 0.2 0.3 0.4 0 0.6l-5.2 3q-0.1 0.1-0.2 0.1-0.2 0-0.3 0-0.2 0-0.3 0-0.1 0-0.3-0.1z"/>
		<path id="Layer" class="s4" d="m250.4 215q0.1 0 0.1 0.1 0 0 0 0.1 0 0.1 0 0.2 0 0-0.1 0-0.1 0.1-0.2 0.1-0.1 0-0.2 0-0.1 0-0.2 0-0.1 0-0.2-0.1"/>
		<path id="Layer" class="s4" d="m249.1 219q-0.2 0.1-0.4 0.1-0.2 0.1-0.4 0.1-0.2 0-0.4-0.1-0.2 0-0.4-0.1-0.1-0.1-0.2-0.2-0.1-0.1-0.1-0.3 0-0.1 0.1-0.2 0.1-0.2 0.2-0.2 0.2-0.1 0.4-0.1 0.2-0.1 0.4-0.1 0.2 0 0.4 0.1 0.2 0 0.4 0.1 0.2 0 0.3 0.2 0.1 0.1 0.1 0.2 0 0.2-0.1 0.3-0.1 0.1-0.3 0.2z"/>
		<path id="Layer" class="s4" d="m250.2 217.4c-0.2-0.2-0.2-0.4 0-0.6l5.2-3q0.1-0.1 0.3-0.1 0.1 0 0.3 0 0.1 0 0.2 0 0.2 0 0.3 0.1c0.3 0.2 0.3 0.4 0 0.6l-5.2 3q-0.1 0.1-0.2 0.1-0.2 0-0.3 0-0.2 0-0.3 0-0.1 0-0.3-0.1z"/>
		<path id="Layer" class="s4" d="m250.4 215q0.1 0 0.1 0.1 0 0 0 0.1 0 0.1 0 0.2 0 0-0.1 0-0.1 0.1-0.2 0.1-0.1 0-0.2 0-0.1 0-0.2 0-0.1 0-0.2-0.1"/>
		<path id="Layer" class="s4" d="m249.1 219q-0.2 0.1-0.4 0.1-0.2 0.1-0.4 0.1-0.2 0-0.4-0.1-0.2 0-0.4-0.1-0.1-0.1-0.2-0.2-0.1-0.1-0.1-0.3 0-0.1 0.1-0.2 0.1-0.2 0.2-0.2 0.2-0.1 0.4-0.1 0.2-0.1 0.4-0.1 0.2 0 0.4 0.1 0.2 0 0.4 0.1 0.2 0 0.3 0.2 0.1 0.1 0.1 0.2 0 0.2-0.1 0.3-0.1 0.1-0.3 0.2z"/>
		<path id="Layer" class="s4" d="m250.2 217.4c-0.2-0.2-0.2-0.4 0-0.6l5.2-3q0.1-0.1 0.3-0.1 0.1 0 0.3 0 0.1 0 0.2 0 0.2 0 0.3 0.1c0.3 0.2 0.3 0.4 0 0.6l-5.2 3q-0.1 0.1-0.2 0.1-0.2 0-0.3 0-0.2 0-0.3 0-0.1 0-0.3-0.1z"/>
		<path id="Layer" class="s8" d="m250.4 215.4q-0.1 0.1-0.2 0.1-0.1 0-0.2 0-0.1 0-0.2 0-0.1 0-0.2-0.1-0.1 0-0.1-0.1-0.1 0-0.1-0.1 0-0.1 0.1-0.1 0-0.1 0.1-0.1 0.1-0.1 0.2-0.1 0.1 0 0.2 0 0.1 0 0.2 0 0.1 0 0.2 0.1 0.1 0 0.1 0.1 0 0 0 0.1 0 0.1 0 0.1 0 0.1-0.1 0.1z"/>
		<path id="Layer" class="s8" d="m250.4 215q0.1 0 0.1 0.1 0 0 0 0.1 0 0.1 0 0.2 0 0-0.1 0-0.1 0.1-0.2 0.1-0.1 0-0.2 0-0.1 0-0.2 0-0.1 0-0.2-0.1"/>
		<path id="Layer" class="s8" d="m249.1 219q-0.2 0.1-0.4 0.1-0.2 0.1-0.4 0.1-0.2 0-0.4-0.1-0.2 0-0.4-0.1-0.1-0.1-0.2-0.2-0.1-0.1-0.1-0.3 0-0.1 0.1-0.2 0.1-0.2 0.2-0.2 0.2-0.1 0.4-0.1 0.2-0.1 0.4-0.1 0.2 0 0.4 0.1 0.2 0 0.4 0.1 0.2 0 0.3 0.2 0.1 0.1 0.1 0.2 0 0.2-0.1 0.3-0.1 0.1-0.3 0.2z"/>
		<path id="Layer" class="s8" d="m250.2 217.4c-0.2-0.2-0.2-0.4 0-0.6l5.2-3q0.1-0.1 0.3-0.1 0.1 0 0.3 0 0.1 0 0.2 0 0.2 0 0.3 0.1c0.3 0.2 0.3 0.4 0 0.6l-5.2 3q-0.1 0.1-0.2 0.1-0.2 0-0.3 0-0.2 0-0.3 0-0.1 0-0.3-0.1z"/>
	</g>
	<g id="freepik--Tablet--inject-64">
		<path id="Layer" class="s4" d="m471.8 197.1l49.4 28.6c0.7 0.4 1.3 0.9 1.7 1.6 0.5 0.7 0.7 1.5 0.7 2.4 0 0.8-0.2 1.6-0.7 2.3-0.4 0.7-1 1.3-1.7 1.7l-76.6 44.2q-0.5 0.2-1.1 0.4-0.6 0.1-1.3 0.1-0.6 0-1.2-0.1-0.6-0.2-1.2-0.4l-49.4-28.6c-0.7-0.4-1.3-0.9-1.7-1.6-0.5-0.7-0.7-1.5-0.7-2.4 0-0.8 0.2-1.6 0.7-2.3 0.4-0.7 1-1.3 1.7-1.7l76.6-44.2q0.6-0.2 1.2-0.4 0.6-0.1 1.2-0.1 0.6 0 1.2 0.1 0.6 0.2 1.2 0.4z"/>
		<path id="Layer" class="s4" d="m471.8 197.1l49.4 28.6c0.7 0.4 1.3 0.9 1.7 1.6 0.5 0.7 0.7 1.5 0.7 2.4 0 0.8-0.2 1.6-0.7 2.3-0.4 0.7-1 1.3-1.7 1.7l-76.6 44.2q-0.5 0.2-1.1 0.4-0.6 0.1-1.3 0.1-0.6 0-1.2-0.1-0.6-0.2-1.2-0.4l-49.4-28.6c-0.7-0.4-1.3-0.9-1.7-1.6-0.5-0.7-0.7-1.5-0.7-2.4 0-0.8 0.2-1.6 0.7-2.3 0.4-0.7 1-1.3 1.7-1.7l76.6-44.2q0.6-0.2 1.2-0.4 0.6-0.1 1.2-0.1 0.6 0 1.2 0.1 0.6 0.2 1.2 0.4z"/>
		<path id="Layer" class="s10" d="m471.8 197.1l49.4 28.6c0.7 0.4 1.3 0.9 1.7 1.6 0.5 0.7 0.7 1.5 0.7 2.4 0 0.8-0.2 1.6-0.7 2.3-0.4 0.7-1 1.3-1.7 1.7l-76.6 44.2q-0.5 0.2-1.1 0.4-0.6 0.1-1.3 0.1-0.6 0-1.2-0.1-0.6-0.2-1.2-0.4l-49.4-28.6c-0.7-0.4-1.3-0.9-1.7-1.6-0.5-0.7-0.7-1.5-0.7-2.4 0-0.8 0.2-1.6 0.7-2.3 0.4-0.7 1-1.3 1.7-1.7l76.6-44.2q0.6-0.2 1.2-0.4 0.6-0.1 1.2-0.1 0.6 0 1.2 0.1 0.6 0.2 1.2 0.4z"/>
		<path id="Layer" class="s4" d="m424.2 221.9l42.8-24.8q0.6-0.2 1.2-0.4 0.6-0.1 1.2-0.1 0.6 0 1.2 0.1 0.7 0.2 1.2 0.4l49.4 28.6c0.7 0.4 1.4 0.9 1.8 1.6 0.4 0.7 0.6 1.5 0.6 2.4 0 0.8-0.2 1.6-0.6 2.3-0.4 0.7-1.1 1.3-1.8 1.7l-76.5 44.2q-0.3 0.1-0.6 0.2-0.3 0.1-0.6 0.2-0.3 0.1-0.6 0.1-0.3 0-0.6 0v-9.6z"/>
		<path id="Layer" class="s4" d="m443.5 273.1q-0.6 0.1-1.3 0.1-0.6 0-1.2-0.1-0.6-0.2-1.2-0.5l-49.4-28.5c-1.3-0.8-1.3-2 0-2.8l76.6-44.1q0.5-0.3 1.1-0.5 0.6-0.1 1.3-0.1 0.6 0 1.2 0.1 0.6 0.2 1.2 0.5l49.4 28.5c1.3 0.7 1.3 2 0 2.7l-76.6 44.2q-0.5 0.3-1.1 0.5z"/>
		<path id="Layer" class="s8" d="m443.5 273.1q-0.6 0.1-1.3 0.1-0.6 0-1.2-0.1-0.6-0.2-1.2-0.5l-49.4-28.5c-1.3-0.8-1.3-2 0-2.8l76.6-44.1q0.5-0.3 1.1-0.5 0.6-0.1 1.3-0.1 0.6 0 1.2 0.1 0.6 0.2 1.2 0.5l49.4 28.5c1.3 0.7 1.3 2 0 2.7l-76.6 44.2q-0.5 0.3-1.1 0.5z"/>
		<path id="Layer" class="s11" d="m513.9 229.3q0.1 0.2 0.1 0.4 0 0.2-0.1 0.3-0.1 0.2-0.3 0.2l-65.9 38q-0.2 0.1-0.4 0.2-0.3 0.1-0.5 0.1-0.3 0-0.5-0.1-0.3-0.1-0.5-0.2l-47.8-27.6q-0.2 0-0.3-0.2-0.1-0.1-0.1-0.3 0-0.2 0.1-0.4 0.1-0.1 0.3-0.2l65.9-38q0.2-0.1 0.4-0.1 0.3-0.1 0.5-0.1 0.3 0 0.5 0.1 0.3 0 0.5 0.1l47.8 27.6q0.2 0.1 0.3 0.2z"/>
		<path id="Layer" class="s4" d="m416.7 256.9q-0.1-0.3-0.1-0.6 0-0.3 0.1-0.5 0.2-0.3 0.5-0.4 0.4-0.2 0.8-0.3 0.4-0.1 0.8-0.1 0.4 0 0.8 0.1 0.4 0.1 0.7 0.3 0.3 0.1 0.5 0.4 0.2 0.2 0.2 0.5 0 0.3-0.2 0.6-0.2 0.2-0.5 0.3-0.3 0.2-0.7 0.3-0.4 0.1-0.8 0.1-0.4 0-0.8-0.1-0.4-0.1-0.8-0.3-0.3-0.1-0.5-0.3z"/>
		<g id="Layer" style="opacity: .3">
			<path id="Layer" class="s12" d="m416.7 256.9q-0.1-0.3-0.1-0.6 0-0.3 0.1-0.5 0.2-0.3 0.5-0.4 0.4-0.2 0.8-0.3 0.4-0.1 0.8-0.1 0.4 0 0.8 0.1 0.4 0.1 0.7 0.3 0.3 0.1 0.5 0.4 0.2 0.2 0.2 0.5 0 0.3-0.2 0.6-0.2 0.2-0.5 0.3-0.3 0.2-0.7 0.3-0.4 0.1-0.8 0.1-0.4 0-0.8-0.1-0.4-0.1-0.8-0.3-0.3-0.1-0.5-0.3z"/>
		</g>
		<path id="Layer" class="s4" d="m493.7 212.9q-0.1 0-0.1-0.1 0-0.1 0.1-0.2 0 0 0.1 0 0.1-0.1 0.2-0.1 0.1 0 0.2 0 0.1 0 0.2 0 0.1 0 0.2 0.1 0 0 0.1 0 0 0.1 0 0.2 0 0.1 0 0.1-0.1 0.1-0.1 0.1-0.1 0-0.2 0.1-0.1 0-0.2 0-0.1 0-0.2 0-0.1-0.1-0.2-0.1-0.1 0-0.1-0.1z"/>
		<path id="Layer" class="s4" d="m494.8 216.4q-0.1-0.1-0.1-0.3 0-0.1 0.1-0.2 0.1-0.2 0.2-0.2 0.2-0.1 0.4-0.1 0.2-0.1 0.4-0.1 0.2 0 0.4 0.1 0.2 0 0.4 0.1 0.1 0 0.2 0.2 0.1 0.1 0.1 0.2 0 0.2-0.1 0.3-0.1 0.1-0.2 0.2-0.2 0.1-0.4 0.1-0.2 0.1-0.4 0.1-0.2 0-0.4-0.1-0.2 0-0.4-0.1-0.1-0.1-0.2-0.2z"/>
		<path id="Layer" class="s4" d="m493.7 215.1q-0.2 0-0.3 0-0.2 0-0.3 0-0.1 0-0.2-0.1l-5.2-3c-0.3-0.2-0.3-0.5 0-0.6q0.1-0.1 0.2-0.1 0.2-0.1 0.3-0.1 0.2 0 0.3 0.1 0.1 0 0.3 0.1l5.1 3c0.3 0.2 0.3 0.4 0 0.6q-0.1 0.1-0.2 0.1z"/>
		<g id="Layer" style="opacity: .3">
			<path id="Layer" class="s12" d="m493.7 212.9q-0.1 0-0.1-0.1 0-0.1 0.1-0.2 0 0 0.1 0 0.1-0.1 0.2-0.1 0.1 0 0.2 0 0.1 0 0.2 0 0.1 0 0.2 0.1 0 0 0.1 0 0 0.1 0 0.2 0 0.1 0 0.1-0.1 0.1-0.1 0.1-0.1 0-0.2 0.1-0.1 0-0.2 0-0.1 0-0.2 0-0.1-0.1-0.2-0.1-0.1 0-0.1-0.1z"/>
			<path id="Layer" class="s12" d="m494.8 216.4q-0.1-0.1-0.1-0.3 0-0.1 0.1-0.2 0.1-0.2 0.2-0.2 0.2-0.1 0.4-0.1 0.2-0.1 0.4-0.1 0.2 0 0.4 0.1 0.2 0 0.4 0.1 0.1 0 0.2 0.2 0.1 0.1 0.1 0.2 0 0.2-0.1 0.3-0.1 0.1-0.2 0.2-0.2 0.1-0.4 0.1-0.2 0.1-0.4 0.1-0.2 0-0.4-0.1-0.2 0-0.4-0.1-0.1-0.1-0.2-0.2z"/>
			<path id="Layer" class="s12" d="m493.7 215.1q-0.2 0-0.3 0-0.2 0-0.3 0-0.1 0-0.2-0.1l-5.2-3c-0.3-0.2-0.3-0.5 0-0.6q0.1-0.1 0.2-0.1 0.2-0.1 0.3-0.1 0.2 0 0.3 0.1 0.1 0 0.3 0.1l5.1 3c0.3 0.2 0.3 0.4 0 0.6q-0.1 0.1-0.2 0.1z"/>
		</g>
	</g>
	<g id="freepik--Laptop--inject-64">
		<path id="Layer" class="s4" d="m224.1 118.5q0.6-0.2 1.2-0.2 0.7 0 1.3 0.2 0.6 0.1 1.2 0.4l58.4 33.7c0.7 0.4 1.3 1 1.8 1.7 0.4 0.7 0.6 1.5 0.6 2.3 0 0.9-0.2 1.7-0.6 2.4-0.5 0.7-1.1 1.2-1.8 1.6l-81 46.8q-0.6 0.3-1.2 0.5-0.6 0.1-1.2 0.1-0.6 0-1.2-0.1-0.7-0.2-1.2-0.5l-58.5-33.7c-0.7-0.4-1.3-1-1.7-1.7-0.5-0.7-0.7-1.5-0.7-2.3 0-0.8 0.2-1.7 0.7-2.4 0.4-0.7 1-1.2 1.7-1.6l81-46.8q0.6-0.3 1.2-0.4z"/>
		<path id="Layer" class="s10" d="m224.1 118.5q0.6-0.2 1.2-0.2 0.7 0 1.3 0.2 0.6 0.1 1.2 0.4l58.4 33.7c0.7 0.4 1.3 1 1.8 1.7 0.4 0.7 0.6 1.5 0.6 2.3 0 0.9-0.2 1.7-0.6 2.4-0.5 0.7-1.1 1.2-1.8 1.6l-81 46.8q-0.6 0.3-1.2 0.5-0.6 0.1-1.2 0.1-0.6 0-1.2-0.1-0.7-0.2-1.2-0.5l-58.5-33.7c-0.7-0.4-1.3-1-1.7-1.7-0.5-0.7-0.7-1.5-0.7-2.3 0-0.8 0.2-1.7 0.7-2.4 0.4-0.7 1-1.2 1.7-1.6l81-46.8q0.6-0.3 1.2-0.4z"/>
		<path id="Layer" class="s4" d="m202.8 208q-0.4 0-0.7 0-0.3-0.1-0.6-0.1-0.3-0.1-0.6-0.2-0.3-0.1-0.6-0.3l-58.4-33.7c-0.7-0.4-1.3-1-1.8-1.7-0.4-0.7-0.6-1.5-0.6-2.3 0-0.8 0.2-1.7 0.6-2.4 0.5-0.7 1.1-1.2 1.8-1.6l60.8-35.2z"/>
		<path id="Layer" class="s8" d="m202.8 208q-0.4 0-0.7 0-0.3-0.1-0.6-0.1-0.3-0.1-0.6-0.2-0.3-0.1-0.6-0.3l-58.4-33.7c-0.7-0.4-1.3-1-1.8-1.7-0.4-0.7-0.6-1.5-0.6-2.3 0-0.8 0.2-1.7 0.6-2.4 0.5-0.7 1.1-1.2 1.8-1.6l60.8-35.2z"/>
		<path id="Layer" class="s4" d="m141.9 165.7l81-46.8q0.6-0.3 1.2-0.4 0.6-0.2 1.2-0.2 0.6 0 1.2 0.2 0.6 0.1 1.2 0.4l58.5 33.7c1.3 0.8 1.3 2 0 2.8l-81 46.8q-0.6 0.3-1.2 0.4-0.6 0.2-1.3 0.2-0.6 0-1.2-0.2-0.6-0.1-1.2-0.4l-58.4-33.7c-1.3-0.8-1.3-2.1 0-2.8z"/>
		<path id="Layer" class="s4" d="m181 143.1l-39.1 22.6q-0.6 0.3-1.2 0.4-0.6 0.2-1.2 0.2-0.6 0-1.2-0.1-0.6-0.2-1.1-0.4-0.5-0.4-0.9-0.8-0.5-0.5-0.8-1-0.3-0.5-0.5-1.1-0.2-0.6-0.2-1.2l-4.2-70.1q0-0.3 0-0.6 0-0.3 0.1-0.6 0.1-0.3 0.2-0.6 0.1-0.3 0.3-0.6l49 28.3z"/>
		<path id="Layer" class="s10" d="m181 143.1l-39.1 22.6q-0.6 0.3-1.2 0.4-0.6 0.2-1.2 0.2-0.6 0-1.2-0.1-0.6-0.2-1.1-0.4-0.5-0.4-0.9-0.8-0.5-0.5-0.8-1-0.3-0.5-0.5-1.1-0.2-0.6-0.2-1.2l-4.2-70.1q0-0.3 0-0.6 0-0.3 0.1-0.6 0.1-0.3 0.2-0.6 0.1-0.3 0.3-0.6l49 28.3z"/>
		<path id="Layer" class="s4" d="m150.9 165.7l72-41.6q0.6-0.3 1.2-0.4 0.6-0.2 1.2-0.2 0.7 0 1.3 0.2 0.6 0.1 1.1 0.4l2 1.1c1.4 0.8 1.4 2 0 2.8l-72 41.6q-0.5 0.3-1.1 0.4-0.6 0.2-1.3 0.2-0.6 0-1.2-0.2-0.6-0.1-1.2-0.4l-2-1.1c-1.3-0.8-1.3-2.1 0-2.8z"/>
		<path id="Layer" class="s8" d="m150.9 165.7l72-41.6q0.6-0.3 1.2-0.4 0.6-0.2 1.2-0.2 0.7 0 1.3 0.2 0.6 0.1 1.1 0.4l2 1.1c1.4 0.8 1.4 2 0 2.8l-72 41.6q-0.5 0.3-1.1 0.4-0.6 0.2-1.3 0.2-0.6 0-1.2-0.2-0.6-0.1-1.2-0.4l-2-1.1c-1.3-0.8-1.3-2.1 0-2.8z"/>
		<path id="Layer" class="s4" d="m160 170.9l72-41.6q0.6-0.3 1.2-0.4 0.6-0.1 1.2-0.1 0.6 0 1.2 0.1 0.7 0.1 1.2 0.4l22.3 12.9c1.3 0.8 1.3 2 0 2.8l-72 41.6q-0.6 0.2-1.2 0.4-0.6 0.1-1.2 0.1-0.6 0-1.2-0.1-0.6-0.2-1.2-0.4l-22.3-12.9c-1.4-0.8-1.4-2 0-2.8z"/>
		<path id="Layer" class="s8" d="m160 170.9l72-41.6q0.6-0.3 1.2-0.4 0.6-0.1 1.2-0.1 0.6 0 1.2 0.1 0.7 0.1 1.2 0.4l22.3 12.9c1.3 0.8 1.3 2 0 2.8l-72 41.6q-0.6 0.2-1.2 0.4-0.6 0.1-1.2 0.1-0.6 0-1.2-0.1-0.6-0.2-1.2-0.4l-22.3-12.9c-1.4-0.8-1.4-2 0-2.8z"/>
		<path id="Layer" class="s4" d="m218.7 173.5l22.3-12.9q0.6-0.3 1.2-0.4 0.6-0.1 1.2-0.1 0.6 0 1.2 0.1 0.7 0.1 1.2 0.4l8.7 5.1c1.4 0.7 1.4 2 0 2.8l-22.2 12.8q-0.6 0.3-1.2 0.5-0.6 0.1-1.2 0.1-0.7 0-1.3-0.1-0.6-0.2-1.2-0.5l-8.7-5c-1.3-0.8-1.3-2 0-2.8z"/>
		<path id="Layer" class="s8" d="m218.7 173.5l22.3-12.9q0.6-0.3 1.2-0.4 0.6-0.1 1.2-0.1 0.6 0 1.2 0.1 0.7 0.1 1.2 0.4l8.7 5.1c1.4 0.7 1.4 2 0 2.8l-22.2 12.8q-0.6 0.3-1.2 0.5-0.6 0.1-1.2 0.1-0.7 0-1.3-0.1-0.6-0.2-1.2-0.5l-8.7-5c-1.3-0.8-1.3-2 0-2.8z"/>
		<path id="Layer" fill-rule="evenodd" class="s4" d="m225.5 148.4q-0.1 0-0.1 0-0.1 0-0.1 0-0.1 0-0.1 0l-2.8-1.6c-0.1-0.1-0.1-0.2 0-0.3l2.2-1.2q0.1-0.1 0.1-0.1 0.1 0 0.1 0 0.1 0 0.1 0 0.1 0 0.1 0.1l2.9 1.6c0 0 0.1 0.1 0 0.2l-2.3 1.3q0 0-0.1 0zm-4.7-5.4q0 0 0.1 0 0 0 0.1 0 0 0 0.1 0l2.7 1.6q0.2 0.1 0 0.2l-2.2 1.3q-0.1 0-0.1 0.1 0 0-0.1 0 0 0-0.1 0 0-0.1-0.1-0.1l-2.8-1.6q-0.1-0.1 0-0.2l2.3-1.3q0 0 0.1 0zm-7.4 4.1q0.1 0 0.1 0 0.1 0 0.1 0 0.1 0 0.1 0 0.1 0.1 0.1 0.1l2.8 1.6c0.1 0.1 0.1 0.2 0 0.2l-3.8 2.2q0 0-0.1 0 0 0-0.1 0 0 0-0.1 0 0 0-0.1 0l-2.8-1.6c-0.1-0.1-0.1-0.2 0-0.2l3.8-2.2zm4-2.3q0.1 0 0.1 0 0.1-0.1 0.1-0.1 0.1 0.1 0.1 0.1 0.1 0 0.1 0l2.8 1.6c0.1 0.1 0.1 0.2 0 0.2l-2.2 1.4q-0.1 0-0.1 0-0.1 0-0.1 0-0.1 0-0.1 0-0.1 0-0.1 0l-2.8-1.6c-0.1-0.1-0.1-0.2 0-0.3l2.2-1.3zm-8.8 5.1q0.1 0 0.1 0 0.1 0 0.1 0 0.1 0 0.1 0 0.1 0 0.1 0l2.8 1.7c0.1 0.1 0.1 0.2 0 0.2l-2.2 1.3q-0.1 0-0.1 0-0.1 0-0.1 0-0.1 0-0.1 0-0.1 0-0.1 0l-2.8-1.6c-0.1-0.1-0.1-0.2 0-0.2l2.3-1.3zm-3.3 1.9q0-0.1 0.1-0.1 0 0 0.1 0 0 0 0.1 0.1 0 0 0.1 0l2.8 1.6c0 0.1 0.1 0.2 0 0.2l-2.3 1.3q0 0.1-0.1 0.1 0 0-0.1 0 0 0-0.1 0 0 0-0.1-0.1l-2.7-1.6c-0.1 0-0.1-0.1 0-0.2l2.2-1.3zm11 6.6q0 0-0.1 0 0 0-0.1 0 0 0-0.1 0 0 0 0 0l-2.8-1.6q-0.2-0.1 0-0.2l2.2-1.3q0.1 0 0.1 0 0.1-0.1 0.1-0.1 0.1 0 0.1 0.1 0 0 0.1 0l2.8 1.6q0.1 0.1 0 0.2l-2.3 1.3zm-3.3 1.9q0 0 0 0-0.1 0.1-0.1 0.1-0.1 0-0.1 0 0 0-0.1 0l-2.8-1.6c0-0.1-0.1-0.2 0-0.3l2.3-1.3q0 0 0.1 0 0 0 0.1 0 0 0 0.1 0 0 0 0.1 0l2.7 1.7c0.1 0 0.1 0.1 0 0.2l-2.2 1.3zm-3.3 1.9q0 0-0.1 0 0 0-0.1 0 0 0-0.1 0 0 0-0.1-0.1l-2.8-1.6c0 0 0-0.1 0-0.2l2.3-1.3q0 0 0.1 0 0 0 0.1 0 0 0 0.1 0 0 0 0.1 0l2.8 1.7c0.1 0.1 0.1 0.2 0 0.2l-2.2 1.3zm-3.3 1.9q0 0-0.1 0 0 0-0.1 0.1 0 0-0.1 0 0 0 0-0.1l-2.8-1.6q-0.2-0.1 0-0.2l2.2-1.3q0.1 0 0.1 0 0.1 0 0.1 0 0.1 0 0.1 0 0 0 0.1 0l2.8 1.6q0.1 0.1 0 0.3l-2.3 1.3zm15.9-13.8q0 0-0.1 0 0 0-0.1 0 0 0-0.1 0 0 0 0 0l-2.8-1.6c-0.1 0-0.1-0.1 0-0.2l2.2-1.3q0.1 0 0.1 0 0.1 0 0.1 0 0 0 0.1 0 0 0 0.1 0l2.8 1.6c0.1 0.1 0.1 0.2 0 0.2l-2.3 1.3zm-2.7 6.2q-0.1 0-0.1 0.1 0 0-0.1 0-0.1 0-0.1 0-0.1 0-0.1 0l-2.8-1.6c-0.1-0.1-0.1-0.2 0-0.3l2.1-1.2c0.1 0 0.1-0.1 0-0.2l-3.6-2q-0.1-0.2 0-0.3l2.6-1.4q0-0.1 0.1-0.1 0 0 0.1 0 0 0 0.1 0 0 0 0 0.1l6.8 3.9c0.1 0 0.1 0.1 0 0.2l-5 2.9zm-17.5-2.8q0.1 0 0.1 0 0.1 0 0.1 0 0.1 0 0.1 0l2.8 1.6c0.1 0.1 0.1 0.2 0 0.2l-2.2 1.3q-0.1 0.1-0.1 0.1-0.1 0-0.1 0-0.1 0-0.1 0-0.1 0-0.1-0.1l-2.8-1.6c-0.1 0-0.1-0.1 0-0.2l2.2-1.3q0.1 0 0.1 0zm-3.3 1.9q0 0 0.1 0 0 0 0.1 0 0 0 0.1 0 0 0 0 0l2.8 1.6c0.1 0.1 0.1 0.2 0 0.2l-2.2 1.3q0 0.1-0.1 0.1 0 0-0.1 0 0 0-0.1 0 0 0-0.1-0.1l-2.8-1.6q-0.1-0.1 0-0.2l2.3-1.3zm-18.5 20.1c-0.1-0.1-0.1-0.2 0-0.2l2.3-1.3q0-0.1 0.1-0.1 0 0 0 0 0.1 0 0.1 0 0.1 0 0.1 0.1l2.8 1.6q0.2 0.1 0 0.2l-2.2 1.3q-0.1 0-0.1 0 0 0-0.1 0 0 0-0.1 0 0 0-0.1 0zm-7.8-4.9q0.1 0 0.1-0.1 0.1 0 0.1 0 0 0 0.1 0 0 0.1 0.1 0.1l2.8 1.6q0.1 0.1 0 0.2l-2.3 1.3q0 0-0.1 0 0 0-0.1 0 0 0-0.1 0 0 0-0.1 0l-2.8-1.6q-0.1-0.1 0-0.2l2.3-1.3zm2.9 3.1c-0.1-0.1-0.1-0.2 0-0.2l2.3-1.3q0-0.1 0.1-0.1 0 0 0.1 0 0 0 0.1 0 0 0 0 0.1l2.8 1.6c0.1 0 0.1 0.2 0 0.2l-2.2 1.3q0 0-0.1 0 0 0-0.1 0 0 0-0.1 0 0 0-0.1 0zm13.8 4.7q0 0.1-0.1 0.1 0 0-0.1 0-0.1 0-0.1 0-0.1 0-0.1-0.1l-2.8-1.6c-0.1 0-0.1-0.1 0-0.2l2.3-1.3q0 0 0 0 0.1 0 0.1 0 0.1 0 0.1 0 0.1 0 0.1 0l2.8 1.6c0.1 0.1 0.1 0.2 0 0.2l-2.2 1.3zm-6.5 0.3c-0.1-0.1-0.1-0.1 0-0.2l2.2-1.3q0.1 0 0.1 0 0.1-0.1 0.1-0.1 0.1 0 0.1 0.1 0.1 0 0.1 0l2.8 1.6c0.1 0.1 0.1 0.2 0 0.2l-2.2 1.3q-0.1 0-0.1 0-0.1 0.1-0.1 0.1-0.1 0-0.1-0.1-0.1 0-0.1 0zm-7-10q0.1 0 0.1 0 0.1 0 0.1 0 0.1 0 0.1 0 0 0 0.1 0l2.8 1.6c0 0.1 0.1 0.2 0 0.2l-2.3 1.3q0 0-0.1 0.1 0 0-0.1 0 0 0-0.1 0 0-0.1-0.1-0.1l-2.7-1.6c-0.1-0.1-0.1-0.2 0-0.2l2.2-1.3zm16.4-9.5q0.1 0 0.1 0 0 0 0.1 0 0 0 0.1 0 0 0 0 0l2.8 1.6c0.1 0.1 0.1 0.2 0 0.3l-2.2 1.3q-0.1 0-0.1 0 0 0-0.1 0 0 0-0.1 0 0 0-0.1 0l-2.8-1.7c-0.1 0-0.1-0.1 0-0.2l2.3-1.3zm-13.1 7.6q0.1 0 0.1 0 0.1 0 0.1 0 0.1 0 0.1 0l2.8 1.6c0.1 0.1 0.1 0.2 0 0.3l-2.2 1.3q-0.1 0-0.1 0-0.1 0-0.1 0-0.1 0-0.1 0-0.1 0-0.1 0l-2.8-1.7c-0.1 0-0.1-0.2 0-0.2l2.3-1.3q0 0 0 0zm16.4-9.5q0 0 0.1 0 0 0 0.1 0 0 0 0.1 0 0 0 0 0.1l2.8 1.6c0.1 0 0.1 0.1 0 0.2l-2.2 1.3q-0.1 0-0.1 0-0.1 0-0.1 0-0.1 0-0.1 0 0 0-0.1 0l-2.8-1.6c-0.1-0.1-0.1-0.2 0-0.2l2.3-1.3zm-6.6 3.8q0-0.1 0.1-0.1 0 0 0.1 0 0 0 0.1 0 0 0 0.1 0.1l2.8 1.6q0.1 0.1 0 0.2l-2.3 1.3q0 0-0.1 0 0 0-0.1 0 0 0-0.1 0 0 0-0.1 0l-2.8-1.6q-0.1-0.1 0-0.2l2.3-1.3zm-3.3 1.9q0.1 0 0.1-0.1 0.1 0 0.1 0 0.1 0 0.1 0.1 0 0 0.1 0l2.8 1.6c0.1 0.1 0.1 0.2 0 0.2l-2.3 1.3q0 0-0.1 0.1 0 0-0.1 0 0 0-0.1 0 0-0.1 0-0.1l-2.8-1.6c-0.1 0-0.1-0.1 0-0.2l2.2-1.3zm-3.3 1.9q0.1 0 0.1 0 0.1 0 0.1 0 0.1 0 0.1 0 0.1 0 0.1 0l2.8 1.6q0.1 0.2 0 0.3l-2.3 1.3q0 0 0 0-0.1 0-0.1 0-0.1 0-0.1 0-0.1 0-0.1 0l-2.8-1.7q-0.1-0.1 0-0.2l2.2-1.3zm17.6 2.8q-0.1 0-0.1 0-0.1 0-0.1 0-0.1 0-0.1 0-0.1 0-0.1 0l-2.8-1.6q-0.1-0.1 0-0.2l2.3-1.3q0 0 0.1 0 0-0.1 0.1-0.1 0 0 0.1 0.1 0 0 0 0l2.8 1.6q0.2 0.1 0 0.2l-2.2 1.3zm28-29.1q0.1 0 0.1 0 0 0 0.1 0 0 0 0.1 0 0 0 0.1 0.1l2.7 1.6c0.1 0 0.1 0.2 0 0.2l-2.2 1.3q0 0-0.1 0 0 0-0.1 0 0 0-0.1 0 0 0-0.1 0l-2.8-1.6c0-0.1-0.1-0.2 0-0.2l2.3-1.3zm-3.9 2.3q0 0 0 0 0.1-0.1 0.1 0 0 0 0.1 0 0 0 0 0l2.8 1.6c0.1 0.1 0.1 0.2 0 0.2l-2.2 1.3q-0.1 0-0.1 0-0.1 0.1-0.1 0.1-0.1 0-0.1-0.1-0.1 0-0.1 0l-2.8-1.6c-0.1-0.1-0.1-0.2 0-0.2l2.3-1.3zm7.2-4.2q0 0 0.1 0 0 0 0.1 0 0 0 0.1 0 0 0 0.1 0l2.8 1.6q0.1 0.1 0 0.2l-2.3 1.3q0 0.1-0.1 0.1 0 0-0.1 0 0 0-0.1 0 0 0-0.1-0.1l-2.7-1.6q-0.2-0.1 0-0.2l2.1-1.3zm-16.5 17.8q0 0.1-0.1 0.1 0 0-0.1 0 0 0-0.1 0 0 0-0.1 0l-2.8-1.6c-0.1-0.1-0.1-0.2 0-0.3l2.3-1.3q0 0 0 0 0.1 0 0.1 0 0.1 0 0.1 0 0.1 0 0.1 0l2.8 1.7q0.1 0.1 0 0.2l-2.2 1.3zm22.9-18.1c0.1 0.1 0.1 0.2 0 0.2l-2.3 1.3q0 0 0 0.1-0.1 0-0.1 0-0.1 0-0.1 0-0.1-0.1-0.1-0.1l-2.8-1.6c-0.1 0-0.1-0.2 0-0.2l2.2-1.3q0.1 0 0.1 0 0.1 0 0.1 0 0.1 0 0.1 0 0.1 0 0.1 0zm-34.6 29.4q0 0-0.1 0 0 0-0.1 0 0-0.1-0.1-0.1l-2.8-1.6c0-0.1 0-0.2 0-0.2l2.3-1.3q0.1 0 0.1 0 0.1 0 0.1 0 0.1 0 0.1 0 0 0 0.1 0l2.8 1.6c0.1 0.1 0.1 0.2 0 0.2l-2.3 1.3q0 0-0.1 0.1zm40.4-23.3q-0.1 0-0.1 0-0.1 0.1-0.1 0.1-0.1 0-0.2-0.1 0 0-0.1 0l-2.7-1.6c-0.1-0.1-0.1-0.2 0-0.2l2.2-1.3q0.1 0 0.1 0 0.1-0.1 0.1-0.1 0.1 0 0.1 0.1 0.1 0 0.1 0l2.8 1.6q0.1 0.1 0 0.2l-2.2 1.3zm-7.4-0.4q0 0-0.1 0 0 0-0.1 0 0 0-0.1 0l-2.8-1.6q-0.1-0.1 0-0.2l2.3-1.3q0 0 0.1 0 0-0.1 0.1-0.1 0 0 0.1 0.1 0 0 0 0l2.8 1.6q0.2 0.1 0 0.2l-2.2 1.3q-0.1 0-0.1 0zm5.6-3.4c0.1 0.1 0.1 0.2 0 0.3l-2.3 1.3q0 0 0 0-0.1 0-0.1 0-0.1 0-0.1 0-0.1 0-0.1 0l-2.8-1.7c-0.1 0-0.1-0.1 0-0.2l2.2-1.3q0.1 0 0.1 0 0.1 0 0.1 0 0.1 0 0.1 0 0.1 0 0.1 0zm-2.1-2c-0.1-0.1-0.1-0.2 0-0.2l2.2-1.3q0.1 0 0.1 0 0.1-0.1 0.1-0.1 0.1 0 0.1 0.1 0.1 0 0.1 0l6.8 3.9c0.1 0.1 0.1 0.2 0 0.2l-2.3 1.3q0 0 0 0-0.1 0.1-0.1 0.1-0.1 0-0.1-0.1-0.1 0-0.1 0l-6.8-3.9zm-7.6 4.2q0 0 0.1-0.1 0 0 0.1 0 0 0 0.1 0.1 0 0 0 0l2.8 1.6c0.1 0.1 0.1 0.2 0 0.2l-2.2 1.3q-0.1 0-0.1 0.1 0 0-0.1 0 0 0-0.1 0 0-0.1-0.1-0.1l-2.8-1.6c-0.1 0-0.1-0.2 0-0.2l2.3-1.3zm-24.7 14.3q0-0.1 0.1-0.1 0 0 0.1 0 0 0 0.1 0 0 0 0.1 0.1l2.8 1.6q0.1 0.1 0 0.2l-2.3 1.3q0 0-0.1 0 0 0-0.1 0 0 0-0.1 0 0 0-0.1 0l-2.7-1.6q-0.2-0.1 0-0.2l2.2-1.3zm29.7-12.3c-0.1-0.1-0.1-0.2 0-0.2l2.3-1.3q0-0.1 0.1-0.1 0 0 0.1 0 0 0 0 0 0.1 0 0.1 0.1l2.8 1.6c0.1 0 0.1 0.1 0 0.2l-2.2 1.3q-0.1 0-0.1 0 0 0-0.1 0 0 0-0.1 0 0 0-0.1 0zm-26.4 10.4q0 0 0.1 0 0 0 0.1 0 0 0 0.1 0 0 0 0 0l2.8 1.6c0.1 0.1 0.1 0.3 0 0.3l-2.2 1.3q-0.1 0-0.1 0-0.1 0-0.1 0-0.1 0-0.1 0 0 0-0.1 0l-2.8-1.7c-0.1 0-0.1-0.1 0-0.2l2.3-1.3zm-26.9 20.5c-0.1-0.1-0.1-0.2 0-0.3l2.2-1.3q0.1 0 0.1 0 0.1 0 0.1 0 0 0 0.1 0 0 0 0.1 0l2.8 1.7c0.1 0 0.1 0.1 0 0.2l-2.3 1.3q0 0 0 0-0.1 0-0.1 0-0.1 0-0.1 0-0.1 0-0.1 0zm-2.5-3.4q0-0.1 0-0.1 0.1 0 0.1 0.1 0.1 0 0.1 0l2.8 1.6q0.2 0.1 0 0.2l-2.2 1.3q-0.1 0-0.1 0-0.1 0.1-0.1 0.1-0.1 0-0.1-0.1 0 0-0.1 0l-2.8-1.6c-0.1-0.1-0.1-0.2 0-0.2l2.3-1.3q0 0 0.1 0zm8.9 3q0 0-0.1 0.1 0 0-0.1 0 0-0.1-0.1-0.1 0 0 0 0l-2.8-1.6c-0.1-0.1-0.1-0.2 0-0.2l2.2-1.3q0.1-0.1 0.1-0.1 0.1 0 0.1 0 0 0 0.1 0 0 0 0.1 0.1l2.8 1.6q0.1 0.1 0 0.2l-2.3 1.3zm3.3-1.9q0 0-0.1 0 0 0-0.1 0 0 0-0.1 0 0 0 0 0l-2.8-1.6c-0.1-0.1-0.1-0.2 0-0.3l2.2-1.3q0.1 0 0.1 0 0.1 0 0.1 0 0 0 0.1 0 0 0 0.1 0l2.8 1.7c0.1 0 0.1 0.1 0 0.2l-2.3 1.3zm3.3-1.9q0 0-0.1 0 0 0-0.1 0 0 0-0.1 0 0-0.1 0-0.1l-2.8-1.6c-0.1 0-0.1-0.1 0-0.2l2.2-1.3q0.1 0 0.1 0 0.1 0 0.1 0 0 0 0.1 0 0 0 0.1 0l2.8 1.6c0.1 0.1 0.1 0.2 0 0.2l-2.3 1.3zm-12.3-1.1q0-0.1 0.1-0.1 0 0 0.1 0 0 0 0.1 0 0 0 0.1 0l2.8 1.7c0.1 0 0.1 0.1 0 0.2l-2.3 1.3q0 0-0.1 0 0 0-0.1 0 0 0-0.1 0 0 0 0 0l-2.8-1.7c-0.1 0-0.1-0.2 0-0.2l2.2-1.3zm3.3-1.9q0 0 0.1 0 0 0 0.1 0 0 0 0.1 0 0 0 0.1 0.1l2.7 1.6c0.1 0 0.1 0.1 0 0.2l-2.2 1.3q0 0-0.1 0 0 0-0.1 0 0 0-0.1 0 0 0-0.1 0l-2.8-1.6c0-0.1-0.1-0.2 0-0.2l2.3-1.4zm13.1-7.6q0.1 0 0.1 0 0.1 0 0.1 0 0 0 0.1 0 0 0 0.1 0l2.8 1.6c0.1 0.1 0.1 0.2 0 0.2l-2.2 1.3q-0.1 0-0.1 0-0.1 0.1-0.1 0.1-0.1 0-0.1-0.1-0.1 0-0.1 0l-2.8-1.6c-0.1-0.1-0.1-0.2 0-0.2l2.3-1.3zm-3.3 1.9q0 0 0.1-0.1 0 0 0.1 0 0 0 0.1 0 0 0.1 0 0.1l2.8 1.5q0.2 0.2 0 0.3l-2.2 1.3q0 0-0.1 0 0 0-0.1 0 0 0-0.1 0 0 0-0.1 0l-2.8-1.6c0-0.1 0-0.2 0-0.3l2.3-1.3zm6.6-3.7q0-0.1 0.1-0.1 0 0 0.1 0 0 0 0.1 0 0 0 0 0l2.8 1.6c0.1 0.1 0.1 0.2 0 0.2l-2.2 1.3q-0.1 0.1-0.1 0.1-0.1 0-0.1 0-0.1 0-0.1 0 0 0-0.1-0.1l-2.8-1.6c-0.1 0-0.1-0.1 0-0.2l2.3-1.3zm-13.2 7.6q0 0 0.1-0.1 0 0 0.1 0 0 0 0.1 0 0 0 0.1 0.1l2.8 1.6q0.1 0.1 0 0.2l-2.3 1.3q0 0-0.1 0 0 0-0.1 0 0 0-0.1 0 0 0 0 0l-2.8-1.6c-0.1-0.1-0.1-0.2 0-0.3l2.2-1.2zm3.3-1.9q0-0.1 0.1-0.1 0 0 0.1 0 0 0 0.1 0 0 0 0.1 0l2.8 1.6c0.1 0.1 0.1 0.2 0 0.2l-2.3 1.3q0 0.1-0.1 0.1 0 0-0.1 0 0 0-0.1 0 0 0 0-0.1l-2.8-1.6c-0.1 0-0.1-0.1 0-0.2l2.2-1.3zm-1.6 13.8q0 0-0.1 0.1 0 0-0.1 0 0-0.1-0.1-0.1 0 0 0 0l-2.8-1.6q-0.2-0.1 0-0.2l2.2-1.3q0.1-0.1 0.1-0.1 0 0 0.1 0 0 0 0.1 0 0 0 0.1 0.1l2.8 1.6q0.1 0.1 0 0.2l-2.3 1.3zm-20.1-2.4q0.2 0.1 0 0.2l-2.2 1.3q-0.1 0-0.1 0 0 0-0.1 0 0 0-0.1 0 0 0-0.1 0l-2.8-1.6c0-0.1-0.1-0.2 0-0.2l2.3-1.4q0 0 0.1 0 0 0 0.1 0 0 0 0.1 0 0 0 0.1 0l2.7 1.6zm5.2 1.6c0.2 0.1 0.2 0.1 0.1 0.2l-3.5 2q0 0-0.1 0 0 0-0.1 0 0 0-0.1 0 0 0-0.1 0l-2.8-1.6c0-0.1-0.1-0.2 0-0.2l3.5-2q0-0.1 0.1-0.1 0 0 0.1 0 0 0 0.1 0 0 0 0.1 0.1l2.8 1.6zm-9.6-4.7q0.2 0.1 0.1 0.2l-2.8 1.6q0 0 0 0-0.1 0-0.1 0-0.1 0-0.1 0-0.1 0-0.1 0l-2.9-1.7q-0.1-0.1 0-0.2l2.8-1.6q0 0 0.1 0 0 0 0.1 0 0 0 0.1 0 0 0 0.1 0l2.8 1.6zm-0.7-2.8c-0.1-0.1-0.1-0.2 0-0.2l2.2-1.3q0.1-0.1 0.1-0.1 0.1 0 0.1 0 0.1 0 0.1 0 0.1 0 0.1 0.1l2.8 1.6c0.1 0 0.1 0.1 0 0.2l-2.2 1.3q-0.1 0-0.1 0-0.1 0-0.1 0-0.1 0-0.1 0-0.1 0-0.1 0zm15 9.4c0.1 0 0.2 0.1 0.1 0.2l-4.3 2.5q-0.1 0-0.1 0-0.1 0-0.1 0-0.1 0-0.1 0-0.1 0-0.1 0l-2.8-1.7q-0.2-0.1 0-0.2l4.3-2.5q0 0 0.1 0 0 0 0.1 0 0 0 0.1 0 0 0 0.1 0l2.8 1.6zm2.4 3.2c0.1 0.1 0.1 0.1 0 0.2l-2.8 1.6q0 0-0.1 0 0 0-0.1 0 0 0-0.1 0 0 0 0 0l-2.8-1.6q-0.2-0.1 0-0.2l2.7-1.6q0.1-0.1 0.1-0.1 0.1 0 0.1 0 0.1 0 0.1 0 0.1 0 0.1 0.1l2.8 1.6zm6.9-26.7c0 0-0.1-0.1 0-0.2l2.3-1.3q0 0 0.1 0 0 0 0.1 0 0 0 0.1 0 0 0 0.1 0l2.7 1.6c0.1 0.1 0.1 0.2 0 0.2l-2.2 1.3q0 0.1-0.1 0.1 0 0-0.1 0 0 0-0.1 0 0 0-0.1-0.1zm-6.6 3.9q-0.1-0.1 0-0.2l2.3-1.3q0-0.1 0.1-0.1 0 0 0.1 0 0 0 0.1 0 0 0 0 0.1l2.8 1.6q0.2 0.1 0 0.2l-2.2 1.3q0 0-0.1 0 0 0-0.1 0 0 0-0.1 0 0 0-0.1 0zm-14.5 8.4c-0.1 0-0.1-0.1 0-0.2l2.2-1.3q0.1 0 0.1 0 0.1 0 0.1 0 0.1 0 0.1 0 0.1 0 0.1 0l2.8 1.6q0.1 0.1 0 0.2l-2.2 1.3q-0.1 0-0.1 0-0.1 0-0.1 0-0.1 0-0.1 0-0.1 0-0.1 0zm17.8-10.4c-0.1 0-0.1-0.1 0-0.2l2.3-1.3q0 0 0 0 0.1 0 0.1 0 0.1 0 0.1 0 0.1 0 0.1 0l2.8 1.6c0.1 0.1 0.1 0.2 0 0.3l-2.2 1.3q-0.1 0-0.1 0-0.1 0-0.1 0-0.1 0-0.1 0 0 0-0.1 0zm-6.5 3.7c-0.1 0-0.1-0.2 0-0.2l2.2-1.3q0 0 0.1 0 0 0 0.1 0 0 0 0.1 0 0 0 0.1 0l2.8 1.6c0 0.1 0.1 0.2 0 0.3l-2.3 1.3q0 0-0.1 0 0 0-0.1 0 0 0-0.1 0 0 0-0.1 0zm7.6 22.8c0.1 0.1 0.1 0.2 0 0.2l-3.4 2q-0.1 0-0.1 0-0.1 0-0.1 0-0.1 0-0.1 0-0.1 0-0.1 0l-2.8-1.6c-0.1-0.1-0.1-0.2 0-0.2l3.4-2q0.1 0 0.1-0.1 0.1 0 0.1 0 0.1 0 0.1 0 0.1 0.1 0.1 0.1zm-12.3-20.1c0-0.1-0.1-0.2 0-0.3l2.3-1.3q0 0 0.1 0 0 0 0.1 0 0 0 0.1 0 0 0 0.1 0l2.7 1.7c0.1 0 0.1 0.1 0 0.2l-2.2 1.3q0 0-0.1 0 0 0-0.1 0 0 0-0.1 0 0 0-0.1 0zm-3.2 1.9c-0.1-0.1-0.1-0.2 0-0.2l2.2-1.3q0-0.1 0.1-0.1 0 0 0.1 0 0 0 0.1 0 0 0 0.1 0.1l2.8 1.6c0.1 0 0.1 0.2 0 0.2l-2.3 1.3q0 0-0.1 0 0 0-0.1 0 0 0-0.1 0 0 0 0 0zm76.3-16.9c0.1 0.1 0.1 0.2 0 0.2l-5.5 3.2q-0.1 0.1-0.1 0.1 0 0-0.1 0 0 0-0.1 0 0 0-0.1-0.1l-2.8-1.6q-0.1-0.1 0-0.2l5.6-3.2q0 0 0.1 0 0 0 0 0 0.1 0 0.1 0 0.1 0 0.1 0zm-7.2 4.2c0.1 0.1 0.1 0.2 0 0.2l-2.3 1.3q0 0-0.1 0 0 0.1-0.1 0.1 0 0-0.1-0.1 0 0 0 0l-2.8-1.6c-0.1-0.1-0.1-0.2 0-0.2l2.2-1.3q0.1 0 0.1 0 0.1-0.1 0.1-0.1 0.1 0 0.1 0.1 0 0 0.1 0zm-47.3 22.9q0 0-0.1 0.1 0 0-0.1 0 0 0-0.1 0 0-0.1-0.1-0.1l-2.8-1.6c0 0-0.1-0.1 0-0.2l2.3-1.3q0 0 0.1 0 0 0 0.1 0 0 0 0.1 0 0 0 0.1 0l2.7 1.6c0.1 0.1 0.1 0.2 0 0.2l-2.2 1.3zm40.7-19.1c0.1 0 0.1 0.2 0 0.2l-2.2 1.3q-0.1 0-0.1 0-0.1 0-0.1 0-0.1 0-0.1 0-0.1 0-0.1 0l-2.8-1.6c-0.1-0.1-0.1-0.2 0-0.2l2.2-1.3q0.1-0.1 0.1-0.1 0.1 0 0.1 0 0.1 0 0.1 0 0.1 0 0.1 0.1zm17.2-9.9c0 0 0 0.1 0 0.2l-2.3 1.3q0 0-0.1 0 0 0-0.1 0 0 0-0.1 0 0 0-0.1 0l-2.8-1.6c-0.1-0.1-0.1-0.2 0-0.2l2.2-1.3q0.1 0 0.1 0 0.1-0.1 0.1-0.1 0.1 0 0.1 0.1 0.1 0 0.1 0zm3.3-1.9q0.1 0.1 0 0.2l-2.3 1.3q0 0.1-0.1 0.1 0 0-0.1 0 0 0-0.1 0 0 0 0-0.1l-6.8-3.9c-0.1 0-0.1-0.1 0-0.2l2.2-1.3q0.1 0 0.1 0 0.1 0 0.1 0 0.1 0 0.1 0 0 0 0.1 0l6.7 3.9zm-32.6 18.9q0.1 0.1 0 0.2l-2.8 1.6q0 0-0.1 0 0 0-0.1 0 0 0-0.1 0 0 0-0.1 0l-2.7-1.6q-0.2-0.2 0-0.3l2.7-1.6q0.1 0 0.1 0 0.1 0 0.1 0 0.1 0 0.1 0 0 0 0.1 0zm8.3-4.7c0.1 0 0.1 0.1 0 0.2l-3.5 2q0 0-0.1 0 0 0-0.1 0 0 0-0.1 0 0 0 0 0l-2.8-1.6c-0.1-0.1-0.1-0.2 0-0.2l3.4-2q0.1-0.1 0.1-0.1 0.1 0 0.1 0 0 0 0.1 0 0 0 0.1 0.1zm-15.9 9.1c0.1 0.1 0.1 0.2 0 0.2l-18.4 10.7q-0.1 0-0.1 0-0.1 0-0.1 0-0.1 0-0.1 0-0.1 0-0.1 0l-2.8-1.6c-0.1-0.1-0.1-0.2 0-0.2l18.5-10.7q0 0 0 0 0.1 0 0.1 0 0.1 0 0.1 0 0.1 0 0.1 0zm-19.5 11.3c0.1 0.1 0.1 0.1 0 0.2l-2.8 1.6q0 0 0 0-0.1 0-0.1 0-0.1 0-0.1 0-0.1 0-0.1 0l-2.8-1.6q-0.2-0.1 0-0.2l2.7-1.6q0.1-0.1 0.1-0.1 0.1 0 0.1 0 0.1 0 0.1 0 0.1 0 0.1 0.1zm23.3-13.5c0.1 0.1 0.1 0.2 0 0.2l-2.7 1.6q-0.1 0-0.1 0.1-0.1 0-0.1 0-0.1 0-0.1 0-0.1-0.1-0.1-0.1l-2.8-1.6q-0.2-0.1 0-0.2l2.7-1.6q0.1 0 0.1 0 0.1 0 0.1 0 0.1 0 0.1 0 0.1 0 0.1 0zm-27.1 15.7c0.1 0 0.1 0.1 0 0.2l-2.7 1.6q-0.1 0-0.1 0-0.1 0-0.1 0-0.1 0-0.1 0-0.1 0-0.1 0l-2.8-1.6c-0.1-0.1-0.1-0.2 0-0.2l2.8-1.6q0-0.1 0-0.1 0.1 0 0.1 0 0.1 0 0.1 0 0.1 0 0.1 0.1zm34.7-20c0.1 0 0.1 0.1 0 0.2l-2.7 1.6q-0.1 0-0.1 0-0.1 0-0.1 0-0.1 0-0.1 0-0.1 0-0.1 0l-2.8-1.6c-0.1-0.1-0.1-0.2 0-0.2l2.8-1.6q0-0.1 0.1-0.1 0 0 0.1 0 0 0 0.1 0 0 0 0.1 0.1zm11.7-6.9c0.1 0.1 0.1 0.2 0 0.3l-2.3 1.2q0 0.1 0 0.1-0.1 0-0.1 0-0.1 0-0.1 0-0.1 0-0.1-0.1l-2.8-1.6c-0.1 0-0.1-0.1 0-0.2l2.2-1.3q0.1 0 0.1 0 0.1 0 0.1 0 0.1 0 0.1 0 0.1 0 0.1 0zm4.2-6.8q0 0-0.1 0 0 0 0 0-0.1 0-0.1-0.1l-2.8-1.6c-0.1 0-0.1-0.1 0-0.2l2.2-1.3q0.1 0 0.1 0 0 0 0.1 0 0 0 0.1 0 0 0 0.1 0l2.8 1.6c0.1 0.1 0.1 0.2 0 0.2l-2.3 1.3q0 0.1-0.1 0.1zm-15.2-0.5q0 0.1-0.1 0.1 0 0-0.1 0 0-0.1-0.1-0.1l-2.8-1.6c0-0.1-0.1-0.1 0-0.2l2.3-1.3q0 0 0.1 0 0-0.1 0.1-0.1 0 0 0.1 0.1 0 0 0.1 0l2.7 1.6c0.1 0.1 0.1 0.2 0 0.2l-2.2 1.3q0 0-0.1 0zm-6.9 13.2q0 0-0.1 0 0 0-0.1 0 0 0-0.1 0l-2.7-1.6c-0.1-0.1-0.1-0.2 0-0.2l6.5-3.8q0.1-0.1 0.1-0.1 0 0 0.1 0 0 0 0.1 0 0 0 0.1 0.1l2.8 1.6c0.1 0.1 0.1 0.2 0 0.2l-6.6 3.8q0 0-0.1 0zm15.8-12.5q-0.2-0.1 0-0.2l2.2-1.3q0.1 0 0.1 0 0-0.1 0.1-0.1 0 0 0.1 0.1 0 0 0.1 0l2.8 1.6c0.1 0.1 0.1 0.2 0 0.2l-2.3 1.3q0 0-0.1 0 0 0.1-0.1 0.1 0 0-0.1-0.1 0 0 0 0zm-0.8-0.7q-0.1 0-0.1 0-0.1 0-0.1 0-0.1 0-0.2 0 0 0 0 0l-2.8-1.6c-0.1-0.1-0.1-0.2 0-0.2l2.2-1.3q0-0.1 0.1-0.1 0 0 0.1 0 0 0 0.1 0 0 0 0.1 0.1l2.8 1.6c0.1 0 0.1 0.1 0 0.2l-2.3 1.3zm-18.1 15.1q0 0-0.1 0 0 0-0.1 0 0 0-0.1 0 0 0-0.1 0l-2.8-1.6q-0.1-0.2 0-0.3l2.3-1.3q0 0 0.1 0 0 0 0.1 0 0 0 0.1 0 0 0 0.1 0l2.7 1.6c0.1 0.1 0.1 0.2 0 0.3l-2.2 1.3zm11.6-10.2c0-0.1 0-0.2 0-0.2l2.3-1.3q0-0.1 0.1-0.1 0 0 0.1 0 0 0 0.1 0 0 0 0.1 0.1l2.8 1.6c0.1 0 0.1 0.1 0 0.2l-2.3 1.3q0 0 0 0-0.1 0-0.1 0-0.1 0-0.1 0-0.1 0-0.1 0zm-28.2 19.6q0 0 0 0-0.1 0-0.1 0-0.1 0-0.1 0l-2.8-1.6q-0.2-0.1 0-0.2l2.2-1.3q0.1 0 0.1 0 0-0.1 0.1-0.1 0 0 0.1 0.1 0 0 0.1 0l2.8 1.6q0.1 0.1 0 0.2l-2.3 1.3q0 0-0.1 0zm3.4-1.8q-0.1 0-0.1 0-0.1 0-0.1 0-0.1 0-0.1 0-0.1 0-0.1-0.1l-2.8-1.6c-0.1 0-0.1-0.2 0-0.2l2.2-1.3q0.1 0 0.1 0 0.1 0 0.1 0 0.1 0 0.1 0 0 0 0.1 0l2.9 1.6c0 0.1 0 0.2 0 0.2l-2.3 1.3zm-6.6 3.8q0 0-0.1 0 0 0 0 0-0.1 0-0.1 0-0.1 0-0.1 0l-2.8-1.6c-0.1-0.1-0.1-0.2 0-0.3l2.2-1.2q0.1-0.1 0.1-0.1 0.1 0 0.1 0 0.1 0 0.1 0 0.1 0 0.1 0.1l2.8 1.6c0.1 0 0.1 0.2 0 0.2l-2.3 1.3zm13.2-7.6q-0.1 0-0.1 0-0.1 0-0.1 0-0.1 0-0.1 0-0.1 0-0.1 0l-2.8-1.6c-0.1-0.1-0.1-0.2 0-0.2l2.3-1.3q0-0.1 0-0.1 0.1 0 0.1 0 0.1 0 0.1 0 0.1 0 0.1 0.1l2.8 1.6c0.1 0 0.1 0.1 0 0.2l-2.2 1.3zm-3.3 1.9q-0.1 0-0.1 0-0.1 0-0.1 0-0.1 0-0.1 0 0 0-0.1-0.1l-2.8-1.6q-0.1-0.1 0-0.2l2.3-1.3q0 0 0.1 0 0 0 0.1 0 0 0 0.1 0 0 0 0 0l2.8 1.6q0.2 0.1 0 0.2l-2.2 1.3zm6.6-3.7q-0.1 0-0.1 0-0.1 0-0.1 0-0.1 0-0.1-0.1-0.1 0-0.1 0l-2.8-1.6c-0.1-0.1-0.1-0.2 0-0.2l2.2-1.3q0.1 0 0.1 0 0.1-0.1 0.1-0.1 0.1 0 0.1 0.1 0.1 0 0.1 0l2.8 1.6c0.1 0.1 0.1 0.2 0 0.2l-2.2 1.3zm13-29.2c-0.1 0-0.1-0.1 0-0.2l2.2-1.3q0 0 0.1 0 0 0 0.1 0 0 0 0.1 0 0 0 0.1 0l0.7 0.4q0.1 0.1 0 0.3l-2.2 1.2q-0.1 0.1-0.1 0.1-0.1 0-0.1 0-0.1 0-0.1 0-0.1 0-0.1-0.1zm-18.1 9.3q-0.2-0.1 0-0.2l2.2-1.3q0.1 0 0.1 0 0.1 0 0.1 0 0.1 0 0.1 0 0 0 0.1 0l2.8 1.6q0.1 0.1 0 0.2l-2.3 1.3q0 0.1-0.1 0.1 0 0-0.1 0 0 0-0.1 0 0 0 0-0.1zm6.5-3.8c-0.1 0-0.1-0.1 0-0.2l2.3-1.3q0 0 0.1 0 0 0 0.1 0 0 0 0.1 0 0 0 0 0l2.8 1.6c0.1 0.1 0.1 0.3 0 0.3l-2.2 1.3q-0.1 0-0.1 0-0.1 0-0.1 0-0.1 0-0.1 0 0 0-0.1 0zm-10.5 6.1c-0.1-0.1-0.1-0.2 0-0.3l2.2-1.3q0 0 0.1 0 0 0 0.1 0 0 0 0.1 0 0 0 0.1 0l2.8 1.7c0 0 0.1 0.2 0 0.2l-2.3 1.3q0 0-0.1 0 0 0-0.1 0 0 0-0.1 0 0 0-0.1 0zm7.3-4.2c-0.1 0-0.1-0.1 0-0.2l2.2-1.3q0.1 0 0.1 0 0.1 0 0.1 0 0.1 0 0.1 0 0.1 0 0.1 0l2.8 1.6c0.1 0.1 0.1 0.2 0 0.2l-2.2 1.3q-0.1 0-0.1 0-0.1 0-0.1 0-0.1 0-0.1 0 0 0-0.1 0zm-13.8 7.9q-0.1-0.1 0-0.2l2.2-1.3q0.1 0 0.1 0 0.1 0 0.1 0 0.1 0 0.1 0 0.1 0 0.1 0l2.8 1.6c0.1 0.1 0.1 0.2 0 0.2l-2.2 1.3q-0.1 0.1-0.1 0.1-0.1 0-0.1 0-0.1 0-0.1 0-0.1 0-0.1-0.1zm3.3-1.9c-0.1 0-0.1-0.2 0-0.2l2.2-1.3q0 0 0.1 0 0 0 0.1 0 0 0 0.1 0 0 0 0.1 0l2.8 1.6c0 0.1 0.1 0.2 0 0.3l-2.3 1.3q0 0-0.1 0 0 0-0.1 0 0 0-0.1 0 0 0-0.1 0zm18.9-9.7c-0.1-0.1-0.1-0.2 0-0.3l2.2-1.3q0.1 0 0.1 0 0.1 0 0.1 0 0 0 0.1 0 0 0 0.1 0l0.7 0.5c0.1 0 0.1 0.1 0 0.2l-2.2 1.3q-0.1 0-0.1 0 0 0-0.1 0 0 0-0.1 0 0 0-0.1 0zm9.9-5.7c-0.1-0.1-0.1-0.2 0-0.2l2.2-1.3q0.1 0 0.1-0.1 0.1 0 0.1 0 0 0 0.1 0 0 0.1 0.1 0.1l0.7 0.4c0.1 0.1 0.1 0.2 0 0.2l-2.2 1.3q-0.1 0-0.1 0.1-0.1 0-0.1 0-0.1 0-0.1 0 0-0.1-0.1-0.1zm3.8 2.2q-0.1-0.1 0-0.2l2.3-1.3q0 0 0.1 0 0 0 0.1 0 0 0 0.1 0 0 0 0 0l2.8 1.6q0.2 0.1 0 0.2l-2.2 1.3q-0.1 0.1-0.1 0.1-0.1 0-0.1 0-0.1 0-0.1 0 0 0-0.1-0.1zm11.8 10.5q-0.1 0-0.1 0-0.1 0-0.1 0-0.1 0-0.1 0l-2.8-1.6q-0.1-0.1 0-0.2l2.2-1.3q0.1-0.1 0.1-0.1 0.1 0 0.1 0 0.1 0 0.1 0 0.1 0 0.1 0.1l2.8 1.6c0.1 0 0.1 0.1 0 0.2l-2.2 1.3q-0.1 0-0.1 0zm-22.2-8.9c0 0-0.1-0.2 0-0.2l2.3-1.3q0 0 0.1 0 0 0 0.1 0 0 0 0.1 0 0 0 0.1 0l0.7 0.5c0.1 0 0.1 0.2 0 0.2l-2.2 1.3q-0.1 0-0.1 0-0.1 0-0.1 0-0.1 0-0.1 0-0.1 0-0.1 0zm-28.7 15.4c-0.1-0.1-0.1-0.3 0-0.3l2.2-1.3q0.1 0 0.1 0 0.1 0 0.1 0 0.1 0 0.1 0 0.1 0 0.1 0l2.8 1.7c0.1 0 0.1 0.2 0 0.2l-2.2 1.3q-0.1 0-0.1 0-0.1 0-0.1 0-0.1 0-0.1 0-0.1 0-0.1 0z"/>
		<path id="Layer" class="s4" d="m137.2 165.8q-0.5-0.4-0.9-0.8-0.4-0.5-0.7-1-0.4-0.5-0.5-1.1-0.2-0.6-0.3-1.2l-4.2-70.1q0-0.7 0.2-1.3 0.1-0.6 0.4-1.2 0.4-0.5 0.8-1 0.5-0.5 1-0.8l81-46.8q0.5-0.2 1.1-0.4 0.6-0.1 1.1-0.1 0.6 0 1.2 0.1 0.6 0.2 1.1 0.4 0.5 0.4 0.9 0.8 0.4 0.5 0.8 1 0.3 0.5 0.5 1.1 0.1 0.6 0.2 1.2l4.2 70.1q0 0.6-0.2 1.2-0.1 0.6-0.4 1.2-0.3 0.5-0.7 1-0.4 0.4-0.9 0.8l-81 46.8q-0.6 0.2-1.2 0.4-0.5 0.1-1.1 0.2-0.6 0-1.2-0.2-0.6-0.1-1.2-0.3z"/>
		<path id="Layer" class="s13" d="m137.2 165.8q-0.5-0.4-0.9-0.8-0.4-0.5-0.7-1-0.4-0.5-0.5-1.1-0.2-0.6-0.3-1.2l-4.2-70.1q0-0.7 0.2-1.3 0.1-0.6 0.4-1.2 0.4-0.5 0.8-1 0.5-0.5 1-0.8l81-46.8q0.5-0.2 1.1-0.4 0.6-0.1 1.1-0.1 0.6 0 1.2 0.1 0.6 0.2 1.1 0.4 0.5 0.4 0.9 0.8 0.4 0.5 0.8 1 0.3 0.5 0.5 1.1 0.1 0.6 0.2 1.2l4.2 70.1q0 0.6-0.2 1.2-0.1 0.6-0.4 1.2-0.3 0.5-0.7 1-0.4 0.4-0.9 0.8l-81 46.8q-0.6 0.2-1.2 0.4-0.5 0.1-1.1 0.2-0.6 0-1.2-0.2-0.6-0.1-1.2-0.3z"/>
		<path id="Layer" class="s4" d="m137.4 90l81-46.8q0.3-0.3 0.8-0.3 0.5-0.1 0.9 0.1 0.5 0.3 0.7 0.7 0.2 0.4 0.2 0.9l4.1 70.1q0 0.6-0.1 1.2-0.2 0.6-0.5 1.2-0.3 0.5-0.7 1-0.4 0.4-0.9 0.8l-81 46.8q-0.4 0.3-0.9 0.3-0.4 0.1-0.9-0.2-0.4-0.2-0.6-0.6-0.2-0.5-0.2-0.9l-4.2-70.1q0-0.7 0.2-1.3 0.1-0.6 0.4-1.1 0.3-0.6 0.7-1 0.5-0.5 1-0.8z"/>
		<path id="Layer" class="s6" d="m139.3 91.7l77.8-44.9q0.3-0.3 0.7-0.3 0.3 0 0.7 0.1 0.3 0.2 0.5 0.6 0.2 0.3 0.1 0.7l3.7 61.1q0 0.5-0.1 1-0.2 0.5-0.4 0.9-0.2 0.4-0.6 0.8-0.3 0.4-0.7 0.6l-77.2 44.6q-0.3 0.3-0.7 0.3-0.4 0-0.7-0.2-0.3-0.1-0.5-0.5-0.2-0.3-0.2-0.7l-4.2-60.8q0-0.5 0.1-1 0.1-0.4 0.4-0.9 0.2-0.4 0.5-0.8 0.4-0.3 0.8-0.6z"/>
	</g>
	<g id="freepik--Computer--inject-64">
		<path id="Layer" class="s4" d="m356.4 161.8l10.4-6q0.6-0.4 1.2-1 0.5-0.6 0.8-1.3 0.3-0.7 0.5-1.5 0.1-0.8 0-1.6l-3.9-19.9 4.6-2.6 22.5 18.3c0.3 1.6 7.4 15.4 5.3 23.1-2 6.7-13 7.5-14.3 8.2l-27.1-10.5z"/>
		<path id="Layer" class="s4" d="m383.5 177.5l10.4-6q0.6-0.4 1.2-1 0.5-0.6 0.8-1.4 0.3-0.7 0.5-1.5 0.1-0.8 0-1.6l-3.9-19.8 4.6-2.6 4.3 22.7q0.2 1.2 0 2.4-0.2 1.2-0.7 2.3-0.5 1.1-1.2 2-0.8 0.9-1.8 1.5l-14.2 8.2z"/>
		<path id="Layer" class="s14" d="m383.5 177.5l10.4-6q0.6-0.4 1.2-1 0.5-0.6 0.8-1.4 0.3-0.7 0.5-1.5 0.1-0.8 0-1.6l-3.9-19.8 4.6-2.6 4.3 22.7q0.2 1.2 0 2.4-0.2 1.2-0.7 2.3-0.5 1.1-1.2 2-0.8 0.9-1.8 1.5l-14.2 8.2z"/>
		<path id="Layer" class="s4" d="m356.4 161.8l27.1 15.7v5.2l-27.1-15.6v-5.3z"/>
		<path id="Layer" class="s13" d="m356.4 161.8l27.1 15.7v5.2l-27.1-15.6v-5.3z"/>
		<path id="Layer" class="s4" d="m332.7 29.7q0.6-0.1 1.2-0.1 0.6 0 1.2 0.2 0.6 0.1 1.1 0.4l103.6 59.8q0.6 0.4 1 0.8 0.4 0.5 0.7 1 0.3 0.6 0.5 1.2 0.2 0.6 0.2 1.2v83.1c0.1 0.9-0.1 1.7-0.5 2.4-0.4 0.7-1 1.3-1.7 1.7-0.7 0.4-1.5 0.6-2.4 0.6-0.8 0-1.6-0.2-2.3-0.7l-103.6-59.8q-0.5-0.3-1-0.8-0.4-0.5-0.7-1-0.3-0.5-0.5-1.1-0.2-0.6-0.2-1.3v-83.1q0-0.6 0.2-1.2 0.1-0.6 0.4-1.1 0.3-0.6 0.7-1 0.4-0.5 0.9-0.8 0.6-0.3 1.2-0.4z"/>
		<path id="Layer" class="s4" d="m360.9 138.4l80.6-46.6q0.2 0.3 0.3 0.6 0.2 0.3 0.2 0.6 0.1 0.3 0.2 0.6 0 0.3 0 0.6v83.1c0.1 0.9-0.1 1.7-0.5 2.4-0.4 0.7-1 1.3-1.7 1.7-0.7 0.4-1.5 0.6-2.4 0.6-0.8 0-1.6-0.2-2.3-0.7z"/>
		<path id="Layer" class="s10" d="m360.9 138.6l80.4-47q0.1 0.3 0.3 0.6 0.1 0.3 0.2 0.6 0.1 0.3 0.1 0.6 0.1 0.3 0.1 0.6l0.5 83.1c0 0.9-0.2 1.7-0.6 2.4-0.4 0.7-1 1.3-1.7 1.7-0.7 0.4-1.5 0.6-2.3 0.6-0.9 0-1.7-0.2-2.3-0.7z"/>
		<path id="Layer" class="s4" d="m329.3 117.3v-83.1c0-1.6 1-2.2 2.4-1.4l103.6 59.8q0.5 0.4 1 0.8 0.4 0.5 0.7 1 0.3 0.6 0.5 1.2 0.2 0.6 0.2 1.2v83.1c0 1.6-1.1 2.2-2.4 1.4l-103.6-59.8q-0.5-0.3-1-0.8-0.4-0.5-0.7-1-0.3-0.5-0.5-1.1-0.2-0.6-0.2-1.3z"/>
		<path id="Layer" class="s13" d="m329.3 117.3v-83.1c0-1.6 1-2.2 2.4-1.4l103.6 59.8q0.5 0.4 1 0.8 0.4 0.5 0.7 1 0.3 0.6 0.5 1.2 0.2 0.6 0.2 1.2v83.1c0 1.6-1.1 2.2-2.4 1.4l-103.6-59.8q-0.5-0.3-1-0.8-0.4-0.5-0.7-1-0.3-0.5-0.5-1.1-0.2-0.6-0.2-1.3z"/>
		<path id="Layer" class="s6" d="m333.5 36.4l100 57.8q0.5 0.3 0.8 0.7 0.3 0.3 0.6 0.8 0.2 0.4 0.4 0.9 0.1 0.4 0.2 1v73.8c0 1.2-0.9 1.7-2 1.1l-100-57.8q-0.5-0.3-0.8-0.6-0.4-0.4-0.6-0.8-0.3-0.5-0.4-1-0.1-0.4-0.2-0.9v-73.9c0-1.2 0.9-1.7 2-1.1z"/>
		<path id="Layer" class="s1" d="m319 157.6q0.6-0.2 1.2-0.2 0.7 0 1.3 0.2 0.6 0.1 1.1 0.4l72 41.6c0.8 0.4 1.4 0.9 1.8 1.6 0.4 0.7 0.7 1.5 0.7 2.4 0 0.8-0.3 1.6-0.7 2.3-0.4 0.7-1 1.3-1.8 1.7l-22.3 12.8q-0.5 0.3-1.1 0.5-0.6 0.1-1.3 0.1-0.6 0-1.2-0.1-0.6-0.2-1.2-0.5l-72-41.5c-0.7-0.4-1.3-1-1.7-1.7-0.5-0.7-0.7-1.5-0.7-2.3 0-0.9 0.2-1.7 0.7-2.4 0.4-0.7 1-1.2 1.7-1.6l22.3-12.9q0.6-0.3 1.2-0.4z"/>
		<path id="Layer" class="s15" d="m369.9 198.2h22.4l2.4 1.4c0.7 0.3 1.3 0.9 1.7 1.6 0.4 0.7 0.7 1.5 0.7 2.4 0 0.8-0.3 1.6-0.7 2.3-0.4 0.7-1 1.3-1.7 1.7l-22.3 12.8q-0.3 0.2-0.6 0.3-0.3 0.1-0.6 0.2-0.3 0-0.6 0.1-0.3 0-0.7 0z"/>
		<path id="Layer" class="s3" d="m394.7 202.4l-22.3 12.8q-0.6 0.3-1.2 0.5-0.6 0.1-1.3 0.1-0.6 0-1.2-0.1-0.6-0.2-1.2-0.5l-72-41.5c-1.3-0.8-1.3-2 0-2.8l22.3-12.9q0.6-0.3 1.2-0.4 0.6-0.2 1.3-0.2 0.6 0 1.2 0.2 0.6 0.1 1.2 0.4l72 41.6c1.3 0.8 1.3 2 0 2.8z"/>
		<path id="Layer" class="s1" d="m384.4 197.5q-0.1 0.1-0.1 0.1 0 0-0.1 0 0 0-0.1 0 0 0-0.1-0.1l-2.2-1.3c-0.1 0.1-0.1-0.1 0-0.2l0.7-0.4q0.1 0 0.1 0 0.1 0 0.1 0 0.1 0 0.1 0 0.1 0 0.1 0l2.2 1.3c0.1 0 0.1 0.1 0 0.2z"/>
		<path id="Layer" class="s1" d="m381.2 195.7q-0.1 0-0.1 0-0.1 0-0.1 0-0.1 0-0.1 0-0.1 0-0.1 0l-2.2-1.3c-0.1 0-0.1-0.2 0-0.2l0.7-0.4q0.1-0.1 0.1-0.1 0 0 0.1 0 0 0 0.1 0 0 0 0.1 0.1l2.2 1.2c0.1 0.1 0.1 0.2 0 0.3z"/>
		<path id="Layer" class="s1" d="m387.6 199.4q0 0-0.1 0 0 0-0.1 0 0 0-0.1 0 0 0 0 0l-2.3-1.3q-0.1-0.1 0-0.2l0.8-0.4q0 0 0.1 0 0-0.1 0.1-0.1 0 0 0.1 0.1 0 0 0.1 0l2.2 1.3q0.1 0.1 0 0.2z"/>
		<path id="Layer" class="s1" d="m390.9 201.3q-0.1 0-0.1 0-0.1 0-0.1 0-0.1 0-0.1 0-0.1 0-0.1 0l-2.2-1.3c-0.1-0.1-0.1-0.1 0-0.2l0.7-0.4q0.1 0 0.1-0.1 0 0 0.1 0 0 0 0.1 0 0 0.1 0.1 0.1l2.2 1.2c0.1 0.1 0.1 0.2 0 0.3z"/>
		<path id="Layer" class="s1" d="m359.2 186.5q0 0 0.1 0 0 0 0.1 0 0 0 0.1 0l3.7 2.2c0.1 0.1 0.1 0.2 0 0.2l-2.7 1.6q-0.1 0-0.1 0-0.1 0-0.1 0-0.1 0-0.1 0-0.1 0-0.1 0l-3.7-2.2c-0.2 0-0.1-0.1 0-0.2l2.7-1.6q0.1 0 0.1 0z"/>
		<path id="Layer" class="s1" d="m317.2 162.2q0 0 0.1 0 0 0 0.1 0 0 0.1 0.1 0.1l2.2 1.3c0.1 0 0.1 0.1 0 0.2l-2.8 1.6q0 0-0.1 0 0 0-0.1 0 0 0-0.1 0 0 0-0.1 0l-2.2-1.3c-0.1-0.1-0.1-0.2 0-0.2l2.8-1.6q0-0.1 0.1-0.1z"/>
		<path id="Layer" class="s1" d="m320.4 164.1q0.1 0 0.1 0 0 0 0.1 0 0 0 0.1 0l2.2 1.3c0.1 0.1 0.1 0.2 0 0.2l-2.8 1.6q0 0 0 0.1-0.1 0-0.1 0-0.1 0-0.1 0-0.1-0.1-0.1-0.1l-2.2-1.3c-0.1 0-0.1-0.1 0-0.2l2.7-1.6q0.1 0 0.1 0z"/>
		<path id="Layer" class="s1" d="m314.3 173q-0.1 0.1-0.1 0.1-0.1 0-0.1-0.1-0.1 0-0.1 0l-2.1-1.3c-0.1-0.1-0.1-0.2 0-0.2l2.7-1.6q0.1 0 0.1-0.1 0.1 0 0.1 0 0.1 0 0.1 0 0.1 0.1 0.1 0.1l2.1 1.3c0.2 0.1 0.1 0.1 0 0.2l-2.7 1.6q-0.1 0-0.1 0z"/>
		<path id="Layer" class="s1" d="m317.5 174.9q0 0-0.1 0 0 0-0.1 0 0 0 0-0.1l-2.3-1.3c-0.1 0-0.1-0.1 0-0.2l2.8-1.6q0 0 0.1 0 0 0 0.1 0 0 0 0.1 0 0 0 0.1 0l2.2 1.3c0.1 0.1 0.1 0.2 0 0.2l-2.8 1.6q0 0-0.1 0.1z"/>
		<path id="Layer" class="s1" d="m320.8 176.7q-0.1 0-0.1 0-0.1 0-0.1 0-0.1 0-0.1 0l-2.2-1.3c-0.1-0.1-0.1-0.1 0-0.2l2.7-1.6q0.1 0 0.1 0 0.1 0 0.1 0 0.1 0 0.1 0 0.1 0 0.1 0l2.2 1.3c0.1 0 0.1 0.1 0 0.2l-2.7 1.6q-0.1 0-0.1 0z"/>
		<path id="Layer" class="s1" d="m324 178.6q0 0-0.1 0 0 0-0.1 0 0 0-0.1 0l-2.2-1.3c-0.1-0.1-0.1-0.2 0-0.2l2.8-1.6q0 0 0-0.1 0.1 0 0.1 0 0.1 0 0.1 0 0.1 0.1 0.1 0.1l2.2 1.3c0.2 0 0.1 0.1 0 0.2l-2.7 1.6q-0.1 0-0.1 0z"/>
		<path id="Layer" class="s1" d="m323.6 166q0.1 0 0.1 0 0.1 0 0.1 0 0.1 0 0.1 0l2.2 1.3c0.2 0 0.1 0.1 0 0.2l-2.7 1.6q-0.1 0-0.1 0-0.1 0-0.1 0 0 0-0.1 0 0 0-0.1 0l-2.2-1.3c-0.1-0.1-0.1-0.1 0-0.2l2.7-1.6q0.1 0 0.1 0z"/>
		<path id="Layer" class="s1" d="m326.9 167.8q0 0 0.1 0 0 0 0 0 0.1 0.1 0.1 0.1l2.2 1.2c0.2 0.1 0.1 0.2 0 0.3l-2.7 1.6q-0.1 0-0.1 0-0.1 0-0.1 0-0.1 0-0.1 0 0 0-0.1 0l-2.2-1.3c-0.1-0.1-0.1-0.2 0-0.2l2.8-1.6q0 0 0.1-0.1z"/>
		<path id="Layer" class="s1" d="m346.7 191.6q0 0-0.1 0 0 0-0.1 0 0 0-0.1 0 0 0 0 0l-2.3-1.3c-0.1 0-0.1-0.1 0-0.2l2.8-1.6q0 0 0.1 0 0 0 0.1 0 0 0 0.1 0 0 0 0.1 0l2.2 1.3c0.1 0.1 0.1 0.1 0 0.2z"/>
		<path id="Layer" class="s1" d="m352.7 182.8q0.1 0 0.1 0 0.1 0 0.1 0 0.1 0 0.1 0l2.2 1.3c0.1 0 0.1 0.1 0 0.2l-2.7 1.6q-0.1 0-0.1 0-0.1 0-0.1 0-0.1 0-0.1 0 0 0-0.1 0l-2.2-1.3c-0.1-0.1-0.1-0.1 0-0.2l2.7-1.6q0.1 0 0.1 0z"/>
		<path id="Layer" class="s1" d="m337.8 191.1q0 0-0.1 0 0 0 0 0-0.1 0-0.1 0l-2.2-1.3q-0.2-0.1 0-0.2l2.7-1.6q0 0 0.1 0 0 0 0.1 0 0 0 0.1 0 0 0 0.1 0l2.1 1.3c0.2 0 0.2 0.1 0 0.2l-2.7 1.6q0 0-0.1 0z"/>
		<path id="Layer" class="s1" d="m341.1 192.9q0 0.1 0 0.1-0.1 0-0.1 0-0.1 0-0.1 0-0.1 0-0.1-0.1l-2.2-1.2c-0.2-0.1-0.2-0.2 0-0.3l2.7-1.5q0.1-0.1 0.1-0.1 0 0 0.1 0 0 0 0.1 0 0 0 0.1 0.1l2.2 1.2c0.1 0.1 0.1 0.2 0 0.3z"/>
		<path id="Layer" class="s1" d="m349.5 180.9q0.1 0 0.1 0 0.1 0 0.1 0 0 0 0.1 0l2.2 1.3c0.1 0.1 0.1 0.2 0 0.2l-2.8 1.6q0 0 0 0-0.1 0.1-0.1 0.1-0.1 0-0.1-0.1-0.1 0-0.1 0l-2.2-1.3c-0.2 0-0.1-0.1 0-0.2l2.7-1.6q0.1 0 0.1 0z"/>
		<path id="Layer" class="s1" d="m333.3 171.6q0.1 0 0.1 0 0.1 0 0.1 0 0.1 0 0.1 0l2.2 1.3c0.2 0 0.1 0.1 0 0.2l-2.7 1.6q-0.1 0-0.1 0-0.1 0-0.1 0 0 0-0.1 0 0 0-0.1 0l-2.2-1.3c-0.1-0.1-0.1-0.1 0-0.2l2.7-1.6q0.1 0 0.1 0z"/>
		<path id="Layer" class="s1" d="m346.3 179q0 0 0.1 0 0 0 0.1 0 0 0.1 0 0.1l2.3 1.2c0.1 0.1 0.1 0.2 0 0.3l-2.8 1.5q0 0.1-0.1 0.1 0 0-0.1 0 0 0-0.1 0 0 0-0.1-0.1l-2.2-1.2c-0.1-0.1-0.1-0.2 0-0.2l2.8-1.6q0-0.1 0.1-0.1z"/>
		<path id="Layer" class="s1" d="m330.1 169.7q0 0 0.1 0 0 0 0.1 0 0 0 0.1 0l2.2 1.3c0.1 0.1 0.1 0.2 0 0.2l-2.8 1.6q0 0-0.1 0 0 0.1-0.1 0.1 0 0-0.1-0.1 0 0 0 0l-2.3-1.3c-0.1 0-0.1-0.1 0-0.2l2.8-1.6q0 0 0.1 0z"/>
		<path id="Layer" class="s1" d="m336.6 173.4q0 0 0.1 0 0 0 0.1 0 0 0.1 0 0.1l2.3 1.2c0.1 0.1 0.1 0.2 0 0.3l-2.8 1.5q0 0.1-0.1 0.1 0 0-0.1 0 0 0-0.1 0 0 0-0.1-0.1l-2.2-1.2c-0.1-0.1-0.1-0.2 0-0.2l2.8-1.6q0-0.1 0.1-0.1z"/>
		<path id="Layer" class="s1" d="m339.8 175.3q0.1 0 0.1 0 0.1 0 0.1 0 0.1 0 0.1 0l2.2 1.3c0.1 0.1 0.1 0.2 0 0.2l-2.7 1.6q-0.1 0-0.1 0-0.1 0.1-0.1 0.1-0.1 0-0.1-0.1 0 0-0.1 0l-2.2-1.3c-0.1 0-0.1-0.1 0-0.2l2.7-1.6q0.1 0 0.1 0z"/>
		<path id="Layer" class="s1" d="m343.1 177.2q0 0 0.1 0 0 0 0.1 0 0 0 0.1 0l2.2 1.3c0.1 0 0.1 0.1 0 0.2l-2.8 1.6q0 0-0.1 0 0 0-0.1 0 0 0-0.1 0 0 0 0 0l-2.3-1.3c-0.1-0.1-0.1-0.1 0-0.2l2.8-1.6q0 0 0.1 0z"/>
		<path id="Layer" class="s1" d="m330.5 182.3q-0.1 0-0.1 0-0.1 0-0.1 0 0 0-0.1 0l-2.2-1.3c-0.1 0-0.1-0.1 0-0.2l2.7-1.6q0.1 0 0.1 0 0.1 0 0.1 0 0.1 0 0.1 0 0.1 0 0.1 0l2.2 1.3c0.1 0 0.1 0.1 0 0.2l-2.7 1.6q-0.1 0-0.1 0z"/>
		<path id="Layer" class="s1" d="m327.2 180.5q0 0 0 0-0.1 0-0.1 0-0.1 0-0.1 0l-2.2-1.3c-0.2 0-0.1-0.1 0-0.2l2.7-1.6q0-0.1 0.1-0.1 0 0 0.1 0 0 0 0.1 0 0 0 0.1 0.1l2.2 1.2c0.1 0.1 0.1 0.2 0 0.2l-2.8 1.6q0 0-0.1 0.1z"/>
		<path id="Layer" class="s1" d="m321.1 169.1q0.1 0 0.1 0 0.1 0 0.1 0 0.1 0 0.1 0l2.2 1.3c0.1 0 0.1 0.1 0 0.2l-2.7 1.6q-0.1 0-0.1 0-0.1 0-0.1 0-0.1 0-0.1 0 0 0-0.1 0l-2.2-1.3q-0.2-0.1 0-0.2l2.7-1.6q0.1 0 0.1 0z"/>
		<path id="Layer" class="s1" d="m317.9 167.2q0.1 0 0.1 0 0.1 0 0.1 0 0 0 0.1 0l2.2 1.3c0.1 0.1 0.1 0.2 0 0.2l-2.8 1.6q0 0 0 0.1-0.1 0-0.1 0-0.1 0-0.1 0-0.1-0.1-0.1-0.1l-2.2-1.3c-0.1 0-0.1-0.1 0-0.2l2.7-1.6q0.1 0 0.1 0z"/>
		<path id="Layer" class="s1" d="m343.5 189.8q0 0-0.1 0 0 0-0.1 0 0 0-0.1 0 0 0-0.1 0l-2.2-1.3c-0.1-0.1-0.1-0.2 0-0.2l2.8-1.6q0 0 0.1-0.1 0 0 0.1 0 0 0 0 0 0.1 0.1 0.1 0.1l2.2 1.3c0.2 0 0.2 0.1 0 0.2z"/>
		<path id="Layer" class="s1" d="m340.2 187.9q-0.1 0-0.1 0-0.1 0-0.1 0-0.1 0-0.1 0l-2.2-1.3c-0.1 0-0.1-0.1 0-0.2l2.7-1.6q0.1 0 0.1 0 0.1 0 0.1 0 0.1 0 0.1 0 0 0 0.1 0l2.2 1.3c0.1 0 0.1 0.1 0 0.2l-2.7 1.6q-0.1 0-0.1 0z"/>
		<path id="Layer" class="s1" d="m336.9 186q0 0.1-0.1 0.1 0 0 0 0-0.1 0-0.1 0l-2.2-1.3c-0.2 0-0.1-0.2 0-0.2l2.7-1.6q0.1 0 0.1 0 0.1 0 0.1 0 0.1 0 0.1 0 0 0 0.1 0l2.2 1.2c0.1 0.1 0.1 0.2 0 0.2l-2.8 1.6q0 0-0.1 0z"/>
		<path id="Layer" class="s1" d="m333.7 184.2q0 0-0.1 0 0 0-0.1 0 0 0-0.1 0l-2.2-1.3c-0.1-0.1-0.1-0.2 0-0.2l2.8-1.6q0 0 0-0.1 0.1 0 0.1 0 0.1 0 0.1 0 0.1 0.1 0.1 0.1l2.2 1.3c0.2 0 0.2 0.1 0 0.2l-2.7 1.6q-0.1 0-0.1 0z"/>
		<path id="Layer" class="s1" d="m340.5 180.3q0.1 0 0.1 0 0.1 0 0.1 0 0.1 0 0.1 0l2.2 1.3c0.1 0 0.1 0.1 0 0.2l-2.7 1.6q-0.1 0-0.1 0-0.1 0-0.1 0-0.1 0-0.1 0 0 0-0.1 0l-2.2-1.3q-0.2-0.1 0-0.2l2.7-1.6q0.1 0 0.1 0z"/>
		<path id="Layer" class="s1" d="m327.6 172.8q0.1 0 0.1 0 0.1 0 0.1 0 0 0 0.1 0l2.2 1.3c0.1 0.1 0.1 0.2 0 0.2l-2.8 1.6q0 0 0 0.1-0.1 0-0.1 0-0.1 0-0.1 0-0.1-0.1-0.1-0.1l-2.2-1.3c-0.2 0-0.1-0.1 0-0.2l2.7-1.6q0.1 0 0.1 0z"/>
		<path id="Layer" class="s1" d="m330.8 174.7q0.1 0 0.1 0 0.1 0 0.1 0 0.1 0 0.1 0l2.2 1.3c0.1 0 0.1 0.1 0 0.2l-2.7 1.6q-0.1 0-0.1 0-0.1 0-0.1 0-0.1 0-0.1 0 0 0-0.1 0l-2.2-1.3q-0.2-0.1 0-0.2l2.7-1.6q0.1 0 0.1 0z"/>
		<path id="Layer" class="s1" d="m324.4 171q0 0 0.1 0 0 0 0.1 0 0 0 0 0l2.3 1.3q0.1 0.1 0 0.2l-2.8 1.6q0 0-0.1 0 0 0-0.1 0 0 0-0.1 0 0 0 0 0l-2.3-1.3c-0.1-0.1-0.1-0.1 0-0.2l2.8-1.6q0 0 0.1 0z"/>
		<path id="Layer" class="s1" d="m337.3 178.4q0.1 0 0.1 0 0 0 0.1 0 0 0 0.1 0l2.2 1.3c0.1 0 0.1 0.1 0 0.2l-2.8 1.6q0 0 0 0-0.1 0-0.1 0-0.1 0-0.1 0-0.1 0-0.1 0l-2.2-1.3c-0.1-0.1-0.1-0.1 0-0.2l2.7-1.6q0.1 0 0.1 0z"/>
		<path id="Layer" class="s1" d="m334.1 176.5q0 0 0.1 0 0 0 0.1 0 0 0.1 0.1 0.1l2.2 1.2q0.2 0.2 0 0.3l-2.8 1.5q0 0.1-0.1 0.1 0 0-0.1 0 0 0-0.1 0 0 0 0-0.1l-2.3-1.2c-0.1-0.1-0.1-0.2 0-0.2l2.8-1.6q0-0.1 0.1-0.1z"/>
		<path id="Layer" class="s1" d="m353.5 187.7q0 0 0.1 0 0 0 0.1 0 0 0 0 0l2.3 1.3q0.1 0.1 0 0.2l-2.8 1.6q0 0-0.1 0 0 0-0.1 0 0 0-0.1 0 0 0-0.1 0l-2.2-1.3c-0.1 0-0.1-0.1 0-0.2l2.8-1.6q0 0 0.1 0z"/>
		<path id="Layer" class="s1" d="m356.9 189.6q0 0 0.1 0 0 0 0.1 0 0 0 0.1 0l2.2 1.3c0.1 0 0.1 0.1 0 0.2l-4.5 2.6q-0.1 0-0.1 0 0 0-0.1 0 0 0-0.1 0 0 0-0.1 0l-2.2-1.3c-0.1 0-0.1-0.1 0-0.2l4.5-2.6q0 0 0.1 0z"/>
		<path id="Layer" class="s1" d="m350.2 190.4q0.1 0 0.1 0 0.1 0 0.1 0 0.1 0 0.1 0l4.8 2.8c0.2 0 0.1 0.2 0 0.2l-2.7 1.6q-0.1 0-0.1 0-0.1 0-0.1 0-0.1 0-0.1 0 0 0-0.1 0l-4.8-2.8c-0.1 0-0.1-0.1 0-0.2l2.7-1.6q0.1 0 0.1 0z"/>
		<path id="Layer" class="s1" d="m343.8 182.1q0 0 0.1 0 0 0 0.1 0 0 0 0.1 0l2.2 1.3q0.1 0.1 0 0.2l-2.8 1.6q0 0-0.1 0 0 0-0.1 0 0 0-0.1 0 0 0-0.1 0l-2.2-1.3c-0.1 0-0.1-0.1 0-0.2l2.8-1.6q0 0 0.1 0z"/>
		<path id="Layer" class="s1" d="m350.2 185.8q0.1 0 0.1 0 0.1 0 0.1 0 0.1 0 0.1 0.1l2.2 1.2c0.1 0.1 0.1 0.2 0 0.2l-2.7 1.6q-0.1 0.1-0.1 0.1-0.1 0-0.1 0-0.1 0-0.1 0 0 0-0.1-0.1l-2.2-1.3c-0.1 0-0.1-0.1 0-0.2l2.7-1.5q0.1-0.1 0.1-0.1z"/>
		<path id="Layer" class="s1" d="m347 184q0.1 0 0.1 0 0.1 0 0.1 0 0 0 0.1 0l2.2 1.3c0.1 0 0.1 0.1 0 0.2l-2.8 1.6q0 0 0 0-0.1 0-0.1 0-0.1 0-0.1 0-0.1 0-0.1 0l-2.2-1.3c-0.1-0.1-0.1-0.2 0-0.2l2.7-1.6q0.1 0 0.1 0z"/>
		<path id="Layer" class="s1" d="m334.6 189.2q-0.1 0-0.1 0-0.1 0-0.1 0-0.1 0-0.1 0l-2.2-1.3c-0.1 0-0.1-0.1 0-0.2l2.7-1.6q0.1 0 0.1 0 0.1 0 0.1 0 0.1 0 0.1 0 0.1 0 0.1 0l2.2 1.3c0.1 0.1 0.1 0.2 0 0.2l-2.7 1.6q-0.1 0-0.1 0z"/>
		<path id="Layer" class="s1" d="m353.1 186.3l2.8-1.6q0 0 0-0.1 0.1 0 0.1 0 0.1 0 0.1 0 0.1 0.1 0.1 0.1l2.2 1.3c0.2 0 0.1 0.1 0 0.2l-2.7 1.5q-0.1 0.1-0.1 0.1-0.1 0-0.1 0 0 0-0.1 0 0 0-0.1-0.1l-2.2-1.2c-0.1-0.1-0.1-0.2 0-0.2z"/>
		<path id="Layer" class="s1" d="m310.6 166.2l2.8-1.6q0 0 0.1 0 0 0 0.1 0 0 0 0.1 0 0 0 0.1 0l3.4 2c0.1 0.1 0.1 0.2 0 0.2l-2.8 1.6q0 0-0.1 0 0 0-0.1 0 0 0-0.1 0 0 0-0.1 0l-3.4-2c-0.1-0.1-0.1-0.1 0-0.2z"/>
		<path id="Layer" class="s1" d="m319.2 161.1l2.7-1.6q0.1 0 0.1 0 0 0 0.1 0 0 0 0.1 0 0 0 0.1 0l2.7 1.6q0.2 0.1 0 0.2l-2.8 1.6q0 0-0.1 0 0 0-0.1 0 0 0-0.1 0 0 0-0.1 0l-2.7-1.6c-0.1 0-0.1-0.1 0.1-0.2z"/>
		<path id="Layer" class="s1" d="m306.4 168.4l2.8-1.6q0 0 0.1 0 0-0.1 0.1-0.1 0 0 0.1 0.1 0 0 0.1 0l4.2 2.4c0.1 0.1 0.1 0.2 0 0.3l-2.7 1.6q-0.1 0-0.1 0-0.1 0-0.1 0-0.1 0-0.1 0-0.1 0-0.1 0l-4.2-2.5c-0.1-0.1-0.1-0.2-0.1-0.2z"/>
		<path id="Layer" class="s1" d="m345.6 195.5l2.7-1.6q0.1 0 0.1 0 0.1 0 0.1 0 0 0 0.1 0 0 0 0.1 0l2.7 1.6c0.1 0.1 0.1 0.2 0 0.2l-2.7 1.6q-0.1 0-0.1 0-0.1 0-0.1 0-0.1 0-0.1 0-0.1 0-0.1 0l-2.7-1.6c-0.1 0-0.1-0.1 0-0.2z"/>
		<path id="Layer" class="s1" d="m302.5 170.6l2.8-1.5q0-0.1 0.1-0.1 0 0 0.1 0 0 0 0 0 0.1 0 0.1 0.1l2.8 1.5c0.1 0.1 0.1 0.2 0 0.3l-2.8 1.5q0 0.1-0.1 0.1 0 0-0.1 0 0 0-0.1 0 0 0-0.1-0.1l-2.7-1.5c-0.1-0.1-0.1-0.2 0-0.3z"/>
		<path id="Layer" class="s1" d="m340.9 173.7q-0.1 0-0.1 0-0.1 0-0.1 0-0.1 0-0.1 0 0 0-0.1 0l-2.2-1.3q-0.2-0.1 0-0.2l2.7-1.6q0.1 0 0.1 0 0.1-0.1 0.1-0.1 0.1 0 0.1 0.1 0.1 0 0.1 0l2.2 1.3c0.2 0 0.1 0.1 0 0.2z"/>
		<path id="Layer" class="s1" d="m347.4 177.4q-0.1 0-0.1 0-0.1 0-0.1 0-0.1 0-0.1 0-0.1 0-0.1 0l-2.2-1.3c-0.1 0-0.1-0.1 0-0.2l2.7-1.6q0.1 0 0.1 0 0.1 0 0.1 0 0.1 0 0.1 0 0 0 0.1 0l2.2 1.3c0.1 0.1 0.1 0.1 0 0.2z"/>
		<path id="Layer" class="s1" d="m344.1 175.6q0 0-0.1 0 0 0-0.1 0 0 0-0.1 0 0 0 0 0l-2.3-1.3c-0.1 0-0.1-0.1 0-0.2l2.8-1.6q0 0 0.1 0 0 0 0.1 0 0 0 0.1 0 0 0 0.1 0l2.2 1.3c0.1 0 0.1 0.1 0 0.2z"/>
		<path id="Layer" class="s1" d="m350.6 179.3q-0.1 0-0.1 0-0.1 0-0.1 0-0.1 0-0.1 0 0 0-0.1 0l-2.2-1.3c-0.1-0.1-0.1-0.1 0-0.2l2.7-1.6q0.1 0 0.1 0 0.1-0.1 0.1-0.1 0.1 0 0.1 0.1 0.1 0 0.1 0l2.2 1.3c0.1 0 0.1 0.1 0 0.2z"/>
		<path id="Layer" class="s1" d="m343.7 195.8q0.1 0 0.1 0 0.1 0 0.1 0 0.1 0 0.1 0 0.1 0 0.1 0l3.4 2c0.1 0 0.1 0.1 0 0.2l-2.7 1.6q-0.1 0-0.1 0-0.1 0-0.1 0-0.1 0-0.1 0-0.1 0-0.1 0l-3.4-2c-0.1-0.1-0.1-0.2 0-0.2z"/>
		<path id="Layer" class="s1" d="m336.3 171.1q0 0-0.1 0 0 0-0.1 0 0 0-0.1 0 0 0-0.1 0l-2.2-1.3c-0.1-0.1-0.1-0.1 0-0.2l2.8-1.6q0 0 0.1 0 0 0 0.1 0 0 0 0.1 0 0 0 0.1 0l2.1 1.2c0.1 0.1 0.1 0.2 0 0.2z"/>
		<path id="Layer" class="s1" d="m333.1 169.2q-0.1 0-0.1 0-0.1 0-0.1 0-0.1 0-0.1 0-0.1 0-0.1 0l-2.2-1.3c-0.1-0.1-0.1-0.2 0-0.2l2.7-1.6q0.1 0 0.1 0 0.1-0.1 0.1-0.1 0.1 0 0.1 0.1 0 0 0.1 0l2.2 1.3q0.2 0.1 0 0.2z"/>
		<path id="Layer" class="s1" d="m326.6 165.5q-0.1 0-0.1 0-0.1 0-0.1 0-0.1 0-0.1 0 0 0-0.1 0l-2.2-1.3c-0.1 0-0.1-0.1 0-0.2l2.8-1.7q0 0 0.1 0 0 0 0 0 0.1 0 0.1 0 0.1 0 0.1 0l2.2 1.3c0.2 0.1 0.1 0.2 0 0.2z"/>
		<path id="Layer" class="s1" d="m329.8 167.3q0 0-0.1 0 0 0-0.1 0 0 0-0.1 0 0 0-0.1 0l-2.2-1.3q-0.1-0.1 0-0.2l2.8-1.6q0 0 0.1 0 0 0 0.1 0 0 0 0.1 0 0 0 0 0l2.3 1.3c0.1 0.1 0.1 0.1 0 0.2z"/>
		<path id="Layer" class="s1" d="m331.4 187.4q-0.1 0-0.1 0-0.1 0-0.1 0-0.1 0-0.1-0.1l-2.2-1.2c-0.1-0.1-0.1-0.2 0-0.3l2.7-1.5q0.1-0.1 0.1-0.1 0.1 0 0.1 0 0.1 0 0.1 0 0.1 0 0.1 0.1l2.2 1.2q0.2 0.1 0 0.2l-2.8 1.6q0 0.1 0 0.1z"/>
		<path id="Layer" class="s1" d="m309.5 176q0.1 0 0.1 0 0.1 0 0.1 0 0.1 0 0.1 0 0.1 0 0.1 0l2.7 1.6c0.1 0.1 0.1 0.2 0 0.2l-2.7 1.6q-0.1 0.1-0.1 0.1-0.1 0-0.1 0-0.1 0-0.1 0-0.1 0-0.1-0.1l-2.7-1.6c-0.1 0-0.1-0.1 0-0.2z"/>
		<path id="Layer" class="s1" d="m301.4 171.3q0 0 0 0 0.1 0 0.1 0 0.1 0 0.1 0 0.1 0 0.1 0l3.4 2c0.2 0.1 0.1 0.2 0 0.2l-2.7 1.6q-0.1 0.1-0.1 0.1-0.1 0-0.1 0-0.1 0-0.1 0 0 0-0.1-0.1l-3.4-2c-0.1 0-0.1-0.1 0-0.2z"/>
		<path id="Layer" class="s1" d="m313.3 178.2q0 0 0.1 0 0 0 0.1 0 0 0 0.1 0 0 0 0 0l18.3 10.5c0.1 0.1 0.1 0.2 0 0.2l-2.8 1.6q0 0-0.1 0.1 0 0-0.1 0 0 0-0.1 0 0-0.1-0.1-0.1l-18.2-10.5c-0.1 0-0.1-0.1 0-0.2z"/>
		<path id="Layer" class="s1" d="m336.3 191.5q0 0 0-0.1 0.1 0 0.1 0 0.1 0 0.1 0 0.1 0.1 0.1 0.1l2.7 1.5q0.2 0.2 0 0.3l-2.7 1.5q-0.1 0.1-0.1 0.1 0 0-0.1 0 0 0-0.1 0 0 0-0.1-0.1l-2.7-1.5c-0.1-0.1-0.1-0.2 0-0.2z"/>
		<path id="Layer" class="s1" d="m332.5 189.3q0.1 0 0.1 0 0 0 0.1 0 0 0 0.1 0 0 0 0.1 0l2.7 1.6c0.1 0.1 0.1 0.1 0 0.2l-2.8 1.6q0 0 0 0-0.1 0-0.1 0-0.1 0-0.1 0-0.1 0-0.1 0l-2.8-1.6c-0.1 0-0.1-0.1 0-0.2z"/>
		<path id="Layer" class="s1" d="m340 193.6q0 0 0.1 0 0 0 0.1 0 0 0 0.1 0 0 0 0.1 0l2.7 1.6c0.1 0.1 0.1 0.2 0 0.2l-2.8 1.6q0 0-0.1 0 0 0.1-0.1 0.1 0 0-0.1-0.1 0 0 0 0l-2.8-1.6c-0.1 0-0.1-0.1 0-0.2z"/>
		<path id="Layer" class="s1" d="m305.8 173.9q0 0 0 0 0.1-0.1 0.1-0.1 0.1 0 0.1 0.1 0.1 0 0.1 0l2.7 1.6c0.2 0 0.2 0.1 0 0.2l-2.7 1.6q-0.1 0-0.1 0 0 0-0.1 0 0 0-0.1 0 0 0-0.1 0l-2.7-1.6c-0.1-0.1-0.1-0.2 0-0.2z"/>
		<path id="Layer" class="s1" d="m348.6 197.3q0 0-0.1 0 0 0-0.1 0 0 0 0 0l-6.5-3.7c-0.1-0.1-0.1-0.2 0-0.3l2.7-1.5q0.1-0.1 0.1-0.1 0.1 0 0.1 0 0.1 0 0.1 0 0.1 0 0.1 0.1l6.4 3.7c0.1 0.1 0.1 0.1 0 0.2l-2.7 1.6q-0.1 0-0.1 0z"/>
		<path id="Layer" class="s1" d="m308.7 174.3q0 0-0.1 0 0 0-0.1 0 0 0-0.1 0l-2.2-1.3q-0.2-0.1 0-0.2l2.8-1.6q0 0 0.1 0 0-0.1 0.1-0.1 0 0 0.1 0.1 0 0 0 0l2.3 1.3c0.1 0 0.1 0.1 0 0.2l-2.8 1.6q0 0-0.1 0z"/>
		<path id="Layer" class="s1" d="m324.9 183.6q0 0-0.1 0 0 0-0.1 0 0 0-0.1 0l-2.2-1.3c-0.1 0-0.1-0.1 0-0.2l2.8-1.6q0 0 0.1 0 0 0 0 0 0.1 0 0.1 0 0.1 0 0.1 0l2.3 1.3c0.1 0.1 0.1 0.2 0 0.2l-2.8 1.6q0 0-0.1 0z"/>
		<path id="Layer" class="s1" d="m321.7 181.8q-0.1 0-0.1 0-0.1 0-0.1 0-0.1 0-0.1-0.1l-2.2-1.2c-0.2-0.1-0.1-0.2 0-0.3l2.7-1.5q0.1-0.1 0.1-0.1 0 0 0.1 0 0 0 0.1 0 0 0 0.1 0.1l2.2 1.2q0.2 0.1 0 0.3l-2.8 1.5q0 0.1 0 0.1z"/>
		<path id="Layer" class="s1" d="m328.1 185.5q0 0-0.1 0 0 0 0 0-0.1 0-0.1 0l-2.3-1.3q-0.1-0.1 0-0.2l2.8-1.6q0 0 0.1 0 0-0.1 0.1-0.1 0 0 0.1 0.1 0 0 0 0l2.2 1.3c0.2 0 0.2 0.1 0 0.2l-2.7 1.6q0 0-0.1 0z"/>
		<path id="Layer" class="s1" d="m315.2 178q-0.1 0-0.1 0-0.1 0-0.1 0-0.1 0-0.1 0l-2.2-1.3c-0.1 0-0.1-0.1 0-0.2l2.7-1.6q0.1 0 0.1 0 0.1 0 0.1 0 0.1 0 0.1 0 0.1 0 0.1 0l2.2 1.3c0.1 0.1 0.1 0.2 0 0.2l-2.7 1.6q-0.1 0-0.1 0z"/>
		<path id="Layer" class="s1" d="m318.4 179.9q0 0 0 0-0.1 0-0.1 0 0 0-0.1 0l-2.2-1.3q-0.2-0.1 0-0.2l2.7-1.6q0 0 0.1 0 0-0.1 0.1-0.1 0 0 0.1 0.1 0 0 0 0l2.3 1.3c0.1 0 0.1 0.1 0 0.2l-2.8 1.6q0 0-0.1 0z"/>
		<path id="Layer" class="s1" d="m311.9 176.2q0 0-0.1 0 0 0-0.1 0 0 0-0.1-0.1l-2.2-1.2c-0.1-0.1-0.1-0.2 0-0.3l2.8-1.5q0-0.1 0.1-0.1 0 0 0.1 0 0 0 0.1 0 0 0 0 0.1l2.3 1.2q0.1 0.1 0 0.2l-2.8 1.6q0 0.1-0.1 0.1z"/>
		<path id="Layer" class="s1" d="m363.5 196.9q0 0-0.1 0 0 0-0.1 0 0 0-0.1-0.1l-2.2-1.2c-0.1-0.1-0.1-0.2 0-0.3l2.8-1.5q0-0.1 0.1-0.1 0 0 0 0 0.1 0 0.1 0 0.1 0 0.1 0.1l2.3 1.2c0.1 0.1 0.1 0.2 0 0.2l-2.8 1.6q0 0.1-0.1 0.1z"/>
		<path id="Layer" class="s1" d="m367.8 191.5q0.1 0 0.1 0 0.1 0 0.1 0 0.1 0 0.1 0l2.2 1.3c0.1 0 0.1 0.1 0 0.2l-2.7 1.6q-0.1 0-0.1 0-0.1 0-0.1 0-0.1 0-0.1 0 0 0-0.1 0l-2.2-1.3c-0.1-0.1-0.1-0.2 0-0.2l2.7-1.6q0.1 0 0.1 0z"/>
		<path id="Layer" class="s1" d="m371.1 193.4q0-0.1 0.1 0 0 0 0.1 0 0 0 0 0l2.2 1.3c0.2 0 0.2 0.1 0 0.2l-2.7 1.6q-0.1 0-0.1 0 0 0-0.1 0 0 0-0.1 0 0 0-0.1 0l-2.2-1.3q-0.2-0.1 0-0.2l2.8-1.6q0 0 0.1 0z"/>
		<path id="Layer" class="s1" d="m366.7 198.7q0 0-0.1 0 0 0 0 0-0.1 0-0.1 0l-2.2-1.3q-0.2-0.1 0-0.2l2.7-1.6q0 0 0.1 0 0 0 0.1 0 0 0 0.1 0 0 0 0.1 0l2.2 1.3c0.1 0.1 0.1 0.2 0 0.2l-2.8 1.6q0 0-0.1 0z"/>
		<path id="Layer" class="s1" d="m364.6 189.6q0 0 0.1 0 0 0 0.1 0 0 0 0.1 0l2.2 1.3c0.1 0.1 0.1 0.1 0 0.2l-2.8 1.6q0 0-0.1 0 0 0.1-0.1 0.1 0 0-0.1-0.1 0 0-0.1 0l-2.2-1.3c-0.1 0-0.1-0.1 0-0.2l2.8-1.6q0 0 0.1 0z"/>
		<path id="Layer" class="s1" d="m348.8 198.7q0 0 0 0 0.1 0 0.1 0 0.1 0 0.1 0 0.1 0 0.1 0l2.2 1.3c0.1 0.1 0.1 0.1 0 0.2l-2.7 1.6q-0.1 0-0.1 0-0.1 0-0.1 0-0.1 0-0.1 0 0 0-0.1 0l-2.2-1.3c-0.1-0.1-0.1-0.1 0-0.2z"/>
		<path id="Layer" class="s1" d="m355.2 202.4q0.1 0 0.1 0 0.1 0 0.1 0 0.1 0 0.1 0 0.1 0 0.1 0l2.2 1.3q0.2 0.1 0 0.2l-2.7 1.6q-0.1 0-0.1 0-0.1 0-0.1 0-0.1 0-0.1 0 0 0-0.1 0l-2.2-1.3c-0.1 0-0.1-0.1 0-0.2z"/>
		<path id="Layer" class="s1" d="m352 200.6q0.1-0.1 0.1-0.1 0 0 0.1 0 0 0 0.1 0 0 0 0.1 0.1l2.2 1.3c0.1 0 0.1 0.1 0 0.2l-2.8 1.6q0 0 0 0-0.1 0-0.1 0-0.1 0-0.1 0-0.1 0-0.1 0l-2.2-1.3q-0.2-0.1 0-0.2z"/>
		<path id="Layer" class="s1" d="m360.3 195q-0.1 0-0.1 0-0.1 0-0.1 0-0.1 0-0.1 0l-2.2-1.3c-0.1 0-0.1-0.1 0-0.2l2.7-1.6q0.1 0 0.1 0 0.1 0 0.1 0 0.1 0 0.1 0 0.1 0 0.1 0l2.2 1.3q0.2 0.1 0 0.2l-2.7 1.6q-0.1 0-0.1 0z"/>
		<path id="Layer" class="s1" d="m355.7 201.4q0 0 0 0-0.1 0-0.1 0-0.1 0-0.1 0-0.1 0-0.1 0l-2.2-1.3q-0.2-0.1 0-0.2l2.7-1.6q0.1 0 0.1 0 0-0.1 0.1-0.1 0 0 0.1 0.1 0 0 0.1 0l2.2 1.3c0.1 0 0.1 0.1 0 0.2z"/>
		<path id="Layer" class="s1" d="m375.6 193.7q-0.1 0-0.1 0-0.1 0-0.1 0-0.1 0-0.1 0 0 0-0.1 0l-2.2-1.3c-0.1 0-0.1-0.1 0-0.2l2.7-1.6q0 0 0.1 0 0 0 0.1 0 0 0 0.1 0 0 0 0.1 0l2.2 1.3q0.2 0.1 0 0.2z"/>
		<path id="Layer" class="s1" d="m369.1 190q-0.1 0-0.1 0-0.1 0-0.1 0-0.1 0-0.1 0-0.1 0-0.1 0l-2.2-1.3c-0.1-0.1-0.1-0.2 0-0.2l2.7-1.6q0.1-0.1 0.1-0.1 0.1 0 0.1 0 0.1 0 0.1 0 0.1 0 0.1 0.1l2.2 1.2c0.1 0.1 0.1 0.2 0 0.3z"/>
		<path id="Layer" class="s1" d="m372.3 191.8q0 0-0.1 0 0 0-0.1 0 0 0-0.1 0 0 0-0.1 0l-2.2-1.3q-0.2-0.1 0-0.2l2.8-1.6q0 0 0.1 0 0 0 0 0 0.1 0 0.1 0 0.1 0 0.1 0l2.3 1.3c0.1 0.1 0.1 0.2 0 0.2z"/>
		<path id="Layer" class="s1" d="m381.2 199.2q0.1 0 0.1 0 0.1 0 0.1 0 0.1 0 0.1 0l2.2 1.3c0.1 0.1 0.1 0.2 0 0.2l-2.7 1.6q-0.1 0-0.1 0-0.1 0-0.1 0-0.1 0-0.1 0 0 0-0.1 0l-2.2-1.3q-0.2-0.1 0-0.2l2.7-1.6q0.1 0 0.1 0z"/>
		<path id="Layer" class="s1" d="m377.9 197.4q0.1 0 0.1 0 0.1 0 0.1 0 0 0 0.1 0 0 0 0.1 0l2.2 1.3c0.1 0 0.1 0.1 0 0.2l-2.7 1.6q-0.1 0-0.1 0-0.1 0-0.1 0-0.1 0-0.1 0-0.1 0-0.1 0l-2.2-1.3c-0.1-0.1-0.1-0.1 0-0.2z"/>
		<path id="Layer" class="s1" d="m369.8 205q-0.1 0-0.1 0-0.1 0-0.1 0-0.1 0-0.1 0l-2.2-1.3c-0.1 0-0.1-0.1 0-0.2l2.7-1.6q0.1 0 0.1 0 0.1 0 0.1 0 0.1 0 0.1 0 0 0 0.1 0l2.2 1.3c0.1 0.1 0.1 0.2 0 0.2l-2.7 1.6q-0.1 0-0.1 0z"/>
		<path id="Layer" class="s1" d="m376.9 204.6q0 0-0.1 0 0 0-0.1 0 0 0-0.1 0l-2.2-1.3c-0.1-0.1-0.1-0.2 0-0.2l2.8-1.6q0 0 0.1-0.1 0 0 0.1 0 0 0 0 0 0.1 0.1 0.1 0.1l2.3 1.3c0.1 0 0.1 0.1 0 0.2l-2.8 1.6q0 0-0.1 0z"/>
		<path id="Layer" class="s1" d="m374 199.6q0 0 0.1 0 0 0 0.1 0 0 0 0.1 0 0 0 0 0l2.3 1.3c0.1 0.1 0.1 0.2 0 0.2l-2.8 1.6q0 0-0.1 0 0 0.1-0.1 0.1 0 0-0.1-0.1 0 0-0.1 0l-2.2-1.3c-0.1 0-0.1-0.1 0-0.2z"/>
		<path id="Layer" class="s1" d="m373.1 206.8q-0.1 0.1-0.1 0.1 0 0-0.1 0 0 0-0.1 0 0 0-0.1-0.1l-2.2-1.3c-0.1 0-0.1-0.1 0-0.2l2.8-1.5q0-0.1 0-0.1 0.1 0 0.1 0 0.1 0 0.1 0 0.1 0 0.1 0.1l2.2 1.2c0.2 0.1 0.1 0.2 0 0.2z"/>
		<path id="Layer" class="s1" d="m358.9 204.6q0.1-0.1 0.1-0.1 0.1 0 0.1 0 0.1 0 0.1 0 0.1 0 0.1 0.1l5.5 3.1c0.1 0.1 0.1 0.2 0 0.2l-2.8 1.6q0 0-0.1 0 0 0.1-0.1 0.1 0 0-0.1-0.1 0 0-0.1 0l-5.4-3.1c-0.1-0.1-0.1-0.2 0-0.2z"/>
		<path id="Layer" class="s1" d="m365.4 208.3q0.1 0 0.1 0 0.1 0 0.1 0 0.1 0 0.1 0 0.1 0 0.1 0l2.2 1.3q0.2 0.1 0 0.2l-2.7 1.6q-0.1 0-0.1 0-0.1 0-0.1 0-0.1 0-0.1 0-0.1 0-0.1 0l-2.2-1.3c-0.1-0.1-0.1-0.2 0-0.2z"/>
		<path id="Layer" class="s1" d="m369.1 209.1q-0.1 0-0.1 0 0 0-0.1 0 0 0-0.1 0l-2.2-1.3c-0.1 0-0.1-0.2 0-0.2l2.8-1.6q0 0 0 0 0.1 0 0.1 0 0.1 0 0.1 0 0.1 0 0.1 0l2.2 1.3q0.2 0.1 0 0.2l-2.7 1.6q-0.1 0-0.1 0z"/>
		<path id="Layer" class="s1" d="m374.8 195.5q0-0.1 0.1-0.1 0 0.1 0.1 0.1 0 0 0 0l2.3 1.3c0.1 0 0.1 0.1 0 0.2l-2.8 1.6q0 0-0.1 0 0 0-0.1 0 0 0-0.1 0 0 0-0.1 0l-2.2-1.3c-0.1-0.1-0.1-0.2 0-0.2l2.8-1.6q0 0 0.1 0z"/>
		<path id="Layer" class="s1" d="m370.8 197.7q0.1 0 0.1 0 0.1 0 0.1 0 0.1 0 0.1 0.1l2.2 1.2c0.1 0.1 0.1 0.2 0 0.3l-2.7 1.5q-0.1 0.1-0.1 0.1-0.1 0-0.1 0-0.1 0-0.1 0 0 0-0.1-0.1l-2.2-1.2c-0.1-0.1-0.1-0.2 0-0.2l2.7-1.6q0.1-0.1 0.1-0.1z"/>
		<path id="Layer" class="s1" d="m362.7 205.4q0 0-0.1 0 0 0-0.1 0 0 0-0.1 0 0 0-0.1 0l-2.2-1.3c-0.1-0.1-0.1-0.2 0-0.2l2.8-1.6q0 0 0.1-0.1 0 0 0.1 0 0 0 0 0 0.1 0.1 0.1 0.1l2.3 1.3c0.1 0 0.1 0.1 0 0.2z"/>
		<path id="Layer" class="s1" d="m366.5 203.1q0 0 0 0-0.1 0-0.1 0-0.1 0-0.1 0l-2.2-1.3c-0.2 0-0.1-0.2 0-0.2l2.7-1.6q0.1 0 0.1 0 0.1 0 0.1 0 0.1 0 0.1 0 0 0 0.1 0l2.2 1.3c0.1 0.1 0.1 0.1 0 0.2l-2.8 1.6q0 0-0.1 0z"/>
		<path id="Layer" class="s1" d="m383 204.8l-6.7 3.9q0 0-0.1 0 0 0-0.1 0 0 0-0.1 0 0 0-0.1 0l-2.2-1.3c-0.1 0-0.1-0.1 0-0.2l6.7-3.8q0.1-0.1 0.1-0.1 0.1 0 0.1 0 0.1 0 0.1 0 0 0 0.1 0.1l2.2 1.2c0.1 0.1 0.1 0.2 0 0.2z"/>
		<path id="Layer" class="s1" d="m365.9 211.7l6.7-3.8q0.1 0 0.1-0.1 0.1 0 0.1 0 0.1 0 0.1 0 0.1 0.1 0.1 0.1l2.1 1.3c0.2 0.1 0.2 0.2 0 0.2l-6.6 3.9q-0.1 0-0.1 0-0.1 0-0.1 0-0.1 0-0.1 0-0.1 0-0.1 0l-2.2-1.3q-0.2-0.1 0.1-0.3z"/>
		<path id="Layer" class="s1" d="m384.2 204.2q-0.1 0-0.1 0 0 0-0.1 0 0 0-0.1 0 0 0-0.1 0l-2.2-1.3c-0.1-0.1-0.1-0.2 0-0.2l2.8-1.6q0 0 0-0.1 0.1 0 0.1 0 0.1 0 0.1 0 0.1 0.1 0.1 0.1l2.2 1.2c0.2 0.1 0.1 0.2 0 0.3z"/>
		<path id="Layer" class="s1" d="m365.8 207.3q0 0-0.1 0 0 0-0.1 0 0-0.1 0-0.1l-2.3-1.2q-0.1-0.2 0-0.3l2.8-1.5q0-0.1 0.1-0.1 0 0 0.1 0 0 0 0.1 0 0 0 0.1 0.1l2.2 1.2c0.1 0.1 0.1 0.2 0 0.2l-2.8 1.6q0 0.1-0.1 0.1z"/>
		<path id="Layer" class="s1" d="m355.6 182.1q-0.1 0.1-0.1 0.1-0.1 0-0.1 0-0.1 0-0.1 0 0 0-0.1-0.1l-2.2-1.2c-0.1-0.1-0.1-0.2 0-0.3l2.7-1.6q0.1 0 0.1 0 0.1 0 0.1 0 0 0 0.1 0 0 0 0.1 0l2.2 1.3c0.1 0.1 0.1 0.2 0 0.2z"/>
		<path id="Layer" class="s1" d="m362 185.9q-0.1 0-0.1 0 0 0-0.1 0 0 0-0.1 0 0 0-0.1 0l-2.2-1.3c-0.1-0.1-0.1-0.2 0-0.2l2.8-1.6q0 0 0-0.1 0.1 0 0.1 0 0.1 0 0.1 0 0.1 0.1 0.1 0.1l2.2 1.2c0.2 0.1 0.1 0.2 0 0.3z"/>
		<path id="Layer" class="s1" d="m358.8 184q-0.1 0-0.1 0-0.1 0-0.1 0-0.1 0-0.1 0-0.1 0-0.1 0l-2.2-1.3q-0.2-0.1 0-0.2l2.7-1.6q0.1 0 0.1 0 0.1 0 0.1 0 0.1 0 0.1 0 0 0 0.1 0l2.2 1.3c0.1 0 0.1 0.1 0 0.2z"/>
		<path id="Layer" class="s1" d="m365.2 187.7q0 0 0 0.1-0.1 0-0.1 0-0.1 0-0.1 0-0.1-0.1-0.1-0.1l-2.2-1.3c-0.2 0-0.1-0.1 0-0.2l2.7-1.6q0.1 0 0.1 0 0.1 0 0.1 0 0 0 0.1 0 0 0 0.1 0l2.2 1.3c0.1 0.1 0.1 0.2 0 0.2z"/>
	</g>
	<g id="freepik--Windows--inject-64">
		<path id="Layer" class="s1" d="m431.1 48.5l72 41.5q0.5 0.4 0.9 0.8 0.5 0.5 0.8 1 0.3 0.6 0.5 1.2 0.2 0.6 0.2 1.2v62.3c0 1.5-1.1 2.1-2.4 1.3l-72-41.5q-0.5-0.4-1-0.8-0.4-0.5-0.7-1-0.3-0.6-0.5-1.2-0.2-0.6-0.2-1.2v-62.3c0-1.5 1.1-2.1 2.4-1.3z"/>
		<path id="Layer" class="s3" d="m430.1 115.5q-0.4-0.5-0.7-1-0.3-0.6-0.5-1.2-0.2-0.6-0.2-1.2v-59.8l76.8 44.3v59.9c0 1.5-1.1 2.1-2.4 1.3l-72-41.5q-0.5-0.4-1-0.8z"/>
		<path id="Layer" class="s16" d="m434.6 60.9l24.3 14q0.3 0.2 0.5 0.5 0.3 0.3 0.5 0.6 0.2 0.3 0.3 0.7 0.1 0.4 0.1 0.7v4.5c0 1-0.6 1.3-1.4 0.9l-24.3-14q-0.3-0.2-0.5-0.5-0.3-0.3-0.5-0.6-0.2-0.3-0.3-0.7-0.1-0.4-0.1-0.7v-4.5c0-1 0.6-1.3 1.4-0.9z"/>
		<path id="Layer" class="s11" d="m501.4 90.9q0.2 0.1 0.4 0.3 0.1 0.2 0.2 0.4 0.2 0.2 0.2 0.4 0.1 0.2 0.1 0.5c0 0.6-0.4 0.8-0.9 0.5q-0.2-0.1-0.4-0.3-0.1-0.2-0.3-0.4-0.1-0.2-0.2-0.4 0-0.2 0-0.5c0-0.6 0.4-0.8 0.9-0.5z"/>
		<path id="Layer" class="s11" d="m497.7 88.8q0.2 0.1 0.4 0.3 0.1 0.1 0.3 0.3 0.1 0.3 0.2 0.5 0 0.2 0 0.5c0 0.6-0.4 0.8-0.9 0.5q-0.2-0.1-0.4-0.3-0.1-0.2-0.2-0.4-0.2-0.2-0.2-0.4-0.1-0.3-0.1-0.5c0-0.6 0.4-0.8 0.9-0.5z"/>
		<path id="Layer" class="s11" d="m494 86.6q0.2 0.2 0.4 0.3 0.1 0.2 0.3 0.4 0.1 0.2 0.1 0.5 0.1 0.2 0.1 0.4c0 0.6-0.4 0.9-0.9 0.6q-0.2-0.2-0.4-0.3-0.1-0.2-0.3-0.4-0.1-0.2-0.2-0.5 0-0.2 0-0.4c0-0.6 0.4-0.9 0.9-0.6z"/>
		<path id="Layer" class="s16" d="m434.6 71.4l33.3 19.2q0.3 0.2 0.6 0.4 0.2 0.3 0.4 0.6 0.2 0.3 0.3 0.7 0.1 0.4 0.1 0.7c0 0.9-0.6 1.3-1.4 0.8l-33.3-19.2q-0.3-0.2-0.5-0.4-0.3-0.3-0.5-0.6-0.2-0.4-0.3-0.7-0.1-0.4-0.1-0.7c0-0.9 0.6-1.3 1.4-0.8z"/>
		<path id="Layer" class="s16" d="m434.6 78.6l33.3 19.2q0.3 0.2 0.6 0.5 0.2 0.2 0.4 0.6 0.2 0.3 0.3 0.6 0.1 0.4 0.1 0.8c0 0.9-0.6 1.2-1.4 0.7l-33.3-19.1q-0.3-0.3-0.5-0.5-0.3-0.3-0.5-0.6-0.2-0.3-0.3-0.7-0.1-0.3-0.1-0.7c0-0.9 0.6-1.3 1.4-0.8z"/>
		<path id="Layer" class="s16" d="m434.6 85.8l33.3 19.2q0.3 0.2 0.6 0.5 0.2 0.2 0.4 0.6 0.2 0.3 0.3 0.6 0.1 0.4 0.1 0.8c0.1 0.9-0.6 1.2-1.4 0.8l-33.2-19.2q-0.4-0.3-0.6-0.5-0.3-0.3-0.5-0.6-0.2-0.3-0.3-0.7-0.1-0.3-0.1-0.7c0-0.9 0.7-1.2 1.4-0.8z"/>
		<path id="Layer" class="s16" d="m434.6 93.1l33.3 19.2q0.3 0.2 0.6 0.4 0.2 0.3 0.4 0.6 0.2 0.3 0.3 0.7 0.1 0.3 0.1 0.7c0 0.9-0.6 1.3-1.4 0.8l-33.3-19.2q-0.3-0.2-0.5-0.5-0.3-0.2-0.5-0.6-0.2-0.3-0.3-0.6-0.1-0.4-0.1-0.8c0-0.9 0.6-1.2 1.4-0.7z"/>
		<path id="Layer" class="s16" d="m435.1 103l64 36.9q0.4 0.3 0.7 0.6 0.4 0.4 0.6 0.8 0.3 0.5 0.4 0.9 0.2 0.5 0.2 1v6c0 1.2-0.9 1.7-2 1.1l-63.8-36.9q-0.4-0.3-0.8-0.7-0.3-0.3-0.6-0.8-0.2-0.4-0.4-0.9-0.1-0.4-0.1-1v-6c-0.1-1.2 0.8-1.7 1.8-1z"/>
		<path id="Layer" class="s11" d="m475.3 84.4l24.1 14q0.3 0.2 0.6 0.5 0.3 0.3 0.5 0.6 0.1 0.3 0.2 0.7 0.2 0.4 0.2 0.7l0.1 33.1c0 1-0.7 1.3-1.5 0.9l-24.2-14q-0.3-0.2-0.6-0.5-0.2-0.3-0.4-0.6-0.2-0.3-0.3-0.7-0.1-0.3-0.1-0.7v-33.2c0-0.9 0.6-1.2 1.4-0.8z"/>
		<path id="Layer" class="s15" d="m477 97.4q-0.6-0.5-1.2-1.2-0.6-0.6-1-1.3-0.5-0.6-0.9-1.4v-8.3c0-0.9 0.6-1.3 1.4-0.8l7.6 4.4q0.4 0.7 0.7 1.4 0.3 0.7 0.5 1.5 0.2 0.7 0.4 1.5 0.1 0.8 0.1 1.6c0 4-2.8 5.6-6.2 3.6q-0.7-0.5-1.4-1z"/>
		<path id="Layer" class="s15" d="m500.9 134.5c-0.1 0.6-0.7 0.8-1.4 0.4l-22.1-12.8 6.3-13.7c0.5-1.1 1.3-1.1 1.7 0.1l2.7 7.2 6.6-12.7c0.6-1.1 1.4-1 1.7 0.2l4.5 15.5z"/>
		<path id="Layer" class="s15" d="m254.4 27.7l27.8-16c1-0.6 1.9-0.1 1.9 1.1v58.1q0 0.6-0.2 1-0.1 0.5-0.4 0.9-0.2 0.5-0.6 0.8-0.3 0.4-0.7 0.7l-27.8 16c-1.1 0.6-2 0.1-2-1.1v-58.2q0.1-0.5 0.2-1 0.2-0.5 0.4-0.9 0.3-0.4 0.6-0.8 0.4-0.3 0.8-0.6z"/>
		<path id="Layer" class="s11" d="m252.4 39.2l31.7-18.2v41.7l-31.7 18.3v-41.8z"/>
		<path id="Layer" class="s3" d="m266.1 51.4c0.4-1.2 1.2-1.3 1.9-0.3l3.4 5.3 6.3-19c0.4-1.2 1.2-1.3 1.7-0.2l4.7 9v16.4l-25.5 14.7z"/>
		<path id="Layer" class="s3" d="m252.4 39.2l10-5.7q0.4 0.4 0.7 0.8 0.2 0.5 0.4 1 0.2 0.5 0.2 1 0.1 0.5 0.1 1.1-0.1 1.7-0.6 3.4-0.5 1.7-1.4 3.3-0.9 1.5-2.1 2.8-1.2 1.3-2.7 2.2-0.5 0.4-1.1 0.6-0.5 0.2-1.1 0.3-0.6 0-1.2 0-0.6-0.1-1.2-0.3z"/>
		<path id="Layer" class="s11" d="m257 29.5c0.9-0.5 1.6-0.1 1.6 1q0 0.4-0.1 0.8-0.1 0.4-0.3 0.8-0.2 0.3-0.5 0.7-0.3 0.3-0.7 0.5c-0.9 0.5-1.6 0.1-1.6-1q0-0.4 0.1-0.8 0.1-0.4 0.4-0.8 0.2-0.4 0.5-0.7 0.2-0.3 0.6-0.5z"/>
		<path id="Layer" class="s11" d="m261.8 27.1l9.3-5.3c0.3-0.2 0.6-0.1 0.6 0.3q0 0.2 0 0.4-0.1 0.1-0.2 0.3 0 0.1-0.2 0.3-0.1 0.1-0.2 0.2l-9.3 5.3c-0.4 0.2-0.7 0.1-0.7-0.3q0-0.2 0.1-0.4 0-0.1 0.1-0.3 0.1-0.1 0.2-0.2 0.1-0.2 0.3-0.3z"/>
		<path id="Layer" class="s11" d="m261.8 29.7l5.1-3c0.4-0.2 0.7-0.1 0.7 0.3q0 0.2-0.1 0.4 0 0.1-0.1 0.3-0.1 0.1-0.2 0.3-0.2 0.1-0.3 0.2l-5.1 3c-0.4 0.2-0.7 0-0.7-0.4q0-0.1 0.1-0.3 0-0.2 0.1-0.3 0.1-0.2 0.2-0.3 0.1-0.1 0.3-0.2z"/>
		<path id="Layer" class="s11" d="m259.1 84.5h-0.6c-0.7 0-1.5-0.3-1.5-1.3q0-0.3 0.1-0.6 0-0.2 0.2-0.5 0.1-0.2 0.3-0.4 0.2-0.2 0.4-0.4c0.5-0.2 0.9-0.1 1 0.3q0.1-0.3 0.2-0.4 0.1-0.2 0.2-0.4 0.1-0.2 0.3-0.4 0.2-0.1 0.3-0.2c0.6-0.4 1.1-0.1 1.1 0.6q-0.1 0.4-0.2 0.8-0.1 0.5-0.3 0.9-0.2 0.4-0.5 0.7-0.2 0.4-0.5 0.7z"/>
		<path id="Layer" class="s11" d="m267.1 75.8l3.9-2.2c0.2-0.1 0.4 0 0.4 0.2v2.7q-0.1 0.1-0.1 0.2 0 0 0 0.1-0.1 0.1-0.1 0.2-0.1 0-0.2 0.1l-3.9 2.2c-0.1 0.1-0.3 0-0.3-0.2v-2.7q0-0.1 0.1-0.2 0-0.1 0-0.1 0.1-0.1 0.1-0.2 0.1 0 0.1-0.1z"/>
		<path id="Layer" class="s11" d="m267.7 78.7l1.2-0.6-0.9 1.7c-0.1 0.3-0.3 0.3-0.3-0.1z"/>
		<path id="Layer" class="s11" d="m278.5 72.9v-1.3c-0.8 0.4-1.3 0.7-1.4 1.6q0 0.2 0 0.4 0 0.2 0.1 0.4 0.1 0.2 0.2 0.3 0.1 0.2 0.3 0.3-0.4-0.1-0.7-0.3-0.3-0.2-0.5-0.5-0.2-0.3-0.2-0.6-0.1-0.4 0-0.7 0.2-0.4 0.4-0.8 0.2-0.4 0.5-0.7 0.3-0.3 0.6-0.5 0.3-0.3 0.7-0.5v-1.1l2.2 0.8z"/>
		<path id="Layer" class="s1" d="m240.5 13.8v62.3q0 0.6-0.2 1.2-0.2 0.6-0.5 1.2-0.3 0.5-0.7 1-0.5 0.4-1 0.8l-72 41.5c-1.3 0.8-2.4 0.2-2.4-1.3v-62.3q0-0.6 0.2-1.2 0.2-0.6 0.5-1.2 0.3-0.5 0.7-1 0.5-0.4 1-0.8l72-41.5c1.3-0.8 2.4-0.2 2.4 1.3z"/>
		<path id="Layer" class="s3" d="m238.1 80.3l-72 41.5c-1.3 0.8-2.4 0.2-2.4-1.3v-59.9l76.8-44.3v59.8q0 0.6-0.2 1.2-0.2 0.6-0.5 1.2-0.3 0.5-0.7 1-0.5 0.4-1 0.8z"/>
		<path id="Layer" class="s16" d="m236 25.8v4.5q0 0.3-0.1 0.7-0.1 0.4-0.3 0.7-0.2 0.3-0.5 0.6-0.2 0.3-0.6 0.5l-24.2 14c-0.8 0.4-1.4 0.1-1.4-0.9v-4.5q0-0.3 0.1-0.7 0.1-0.4 0.3-0.7 0.2-0.3 0.4-0.6 0.3-0.3 0.6-0.5l24.2-14c0.8-0.4 1.5-0.1 1.5 0.9z"/>
		<path id="Layer" class="s11" d="m168.7 55.4q0 0.3 0 0.5-0.1 0.2-0.2 0.4-0.2 0.2-0.3 0.4-0.2 0.2-0.4 0.3c-0.5 0.3-0.9 0.1-0.9-0.5q0-0.3 0.1-0.5 0-0.2 0.1-0.4 0.2-0.2 0.3-0.4 0.2-0.2 0.4-0.3c0.5-0.3 0.9-0.1 0.9 0.5z"/>
		<path id="Layer" class="s11" d="m172.4 53.3q0 0.2-0.1 0.5 0 0.2-0.2 0.4-0.1 0.2-0.3 0.4-0.1 0.2-0.3 0.3c-0.5 0.3-0.9 0.1-0.9-0.5q0-0.3 0-0.5 0.1-0.2 0.2-0.5 0.1-0.2 0.3-0.3 0.2-0.2 0.4-0.3c0.5-0.3 0.9-0.1 0.9 0.5z"/>
		<path id="Layer" class="s11" d="m176.1 51.2q0 0.2-0.1 0.4-0.1 0.3-0.2 0.5-0.1 0.2-0.3 0.4-0.1 0.1-0.3 0.3c-0.6 0.3-1 0-1-0.6q0-0.2 0.1-0.4 0.1-0.3 0.2-0.5 0.1-0.2 0.3-0.4 0.1-0.1 0.4-0.3c0.5-0.3 0.9 0 0.9 0.6z"/>
		<path id="Layer" class="s16" d="m236 36.2q0 0.3-0.1 0.7-0.2 0.3-0.3 0.7-0.2 0.3-0.5 0.6-0.2 0.2-0.6 0.4l-33.2 19.2c-0.8 0.5-1.5 0.1-1.5-0.8q0.1-0.3 0.2-0.7 0.1-0.4 0.3-0.7 0.2-0.3 0.4-0.6 0.3-0.2 0.6-0.4l33.2-19.2c0.8-0.5 1.5-0.1 1.5 0.8z"/>
		<path id="Layer" class="s16" d="m236 43.4q0 0.4-0.1 0.7-0.2 0.4-0.3 0.7-0.2 0.3-0.5 0.6-0.2 0.2-0.6 0.4l-33.2 19.2c-0.8 0.5-1.5 0.2-1.5-0.7q0.1-0.4 0.2-0.8 0.1-0.3 0.3-0.6 0.2-0.4 0.4-0.6 0.3-0.3 0.6-0.5l33.2-19.2c0.8-0.5 1.5-0.1 1.5 0.8z"/>
		<path id="Layer" class="s16" d="m236 50.6q0 0.4-0.1 0.7-0.2 0.4-0.3 0.7-0.2 0.3-0.5 0.6-0.2 0.2-0.6 0.5l-33.2 19.1c-0.8 0.5-1.5 0.2-1.5-0.7q0.1-0.4 0.2-0.8 0.1-0.3 0.3-0.6 0.2-0.4 0.4-0.6 0.3-0.3 0.6-0.5l33.2-19.2c0.8-0.4 1.5-0.1 1.5 0.8z"/>
		<path id="Layer" class="s16" d="m236 57.8q0 0.4-0.1 0.8-0.2 0.3-0.3 0.6-0.2 0.4-0.5 0.6-0.2 0.3-0.6 0.5l-33.2 19.2c-0.8 0.5-1.5 0.1-1.5-0.8q0.1-0.4 0.2-0.7 0.1-0.4 0.3-0.7 0.2-0.3 0.4-0.6 0.3-0.2 0.6-0.4l33.2-19.2c0.8-0.5 1.5-0.2 1.5 0.7z"/>
		<path id="Layer" class="s16" d="m235.9 68.1v6q0 0.5-0.1 1-0.2 0.5-0.4 0.9-0.3 0.4-0.6 0.8-0.4 0.3-0.8 0.6l-63.8 37c-1.1 0.6-2 0.1-2-1.2v-6q0-0.5 0.2-0.9 0.1-0.5 0.4-1 0.2-0.4 0.6-0.8 0.3-0.3 0.7-0.6l64-36.9c1-0.7 1.9-0.2 1.8 1.1z"/>
		<path id="Layer" class="s11" d="m195.3 49.3v33.1q0 0.4-0.1 0.7-0.1 0.4-0.3 0.7-0.2 0.3-0.5 0.6-0.2 0.3-0.5 0.5l-24.3 14c-0.8 0.4-1.4 0.1-1.4-0.9l0.1-33.1q0-0.3 0.1-0.7 0.2-0.4 0.3-0.7 0.2-0.3 0.5-0.6 0.2-0.3 0.6-0.5l24.1-14c0.8-0.4 1.4-0.1 1.4 0.9z"/>
		<path id="Layer" class="s15" d="m190.8 62.4c-3.4 2-6.2 0.4-6.2-3.6q0-0.8 0.1-1.6 0.2-0.8 0.4-1.5 0.2-0.8 0.5-1.5 0.3-0.7 0.7-1.4l7.6-4.4c0.8-0.5 1.4-0.1 1.4 0.8v8.3q-0.4 0.8-0.9 1.4-0.4 0.7-1 1.3-0.6 0.7-1.2 1.2-0.7 0.5-1.4 1z"/>
		<path id="Layer" class="s15" d="m168.3 82.7l4.5-15.5c0.3-1.2 1.1-1.3 1.7-0.2l6.6 12.7 2.7-7.2c0.4-1.2 1.2-1.2 1.7-0.1l6.3 13.7-22.1 12.8c-0.7 0.4-1.3 0.2-1.4-0.4z"/>
		<path id="Layer" class="s3" d="m387.8 76.7l-0.1 57.9c0 0.6-0.4 0.8-0.9 0.5l-78.9-45.6q-0.2-0.1-0.4-0.3-0.2-0.1-0.3-0.4-0.1-0.2-0.2-0.4 0-0.2-0.1-0.5v-57.9c0-0.6 0.5-0.8 1-0.5l78.9 45.5q0.2 0.1 0.4 0.3 0.2 0.2 0.3 0.4 0.1 0.2 0.2 0.5 0 0.2 0 0.5z"/>
		<path id="Layer" class="s1" d="m307.9 29.5l78.9 45.5q0.2 0.1 0.4 0.3 0.2 0.2 0.3 0.4 0.1 0.2 0.2 0.5 0 0.2 0.1 0.4v4.1l-80.9-46.7v-4c0-0.6 0.5-0.8 1-0.5z"/>
		<path id="Layer" class="s11" d="m384.4 75.2q0.2 0.1 0.3 0.3 0.2 0.2 0.3 0.4 0.1 0.2 0.2 0.4 0.1 0.2 0.1 0.5c0 0.6-0.4 0.8-0.9 0.5q-0.3-0.1-0.4-0.3-0.2-0.2-0.3-0.4-0.1-0.2-0.2-0.4-0.1-0.2-0.1-0.5c0-0.6 0.4-0.8 1-0.5z"/>
		<path id="Layer" class="s11" d="m380.7 73.1q0.2 0.1 0.3 0.3 0.2 0.1 0.3 0.3 0.2 0.3 0.2 0.5 0.1 0.2 0.1 0.5c0 0.6-0.4 0.8-0.9 0.5q-0.2-0.1-0.4-0.3-0.2-0.2-0.3-0.4-0.1-0.2-0.2-0.4 0-0.3 0-0.5c0-0.6 0.4-0.8 0.9-0.5z"/>
		<path id="Layer" class="s11" d="m377 70.9q0.2 0.2 0.4 0.3 0.1 0.2 0.3 0.4 0.1 0.2 0.1 0.5 0.1 0.2 0.1 0.4c0 0.6-0.4 0.9-0.9 0.6q-0.2-0.2-0.4-0.3-0.1-0.2-0.3-0.4-0.1-0.2-0.2-0.5 0-0.2 0-0.4c0-0.6 0.4-0.9 0.9-0.6z"/>
		<path id="Layer" class="s6" d="m325.2 50.6q1.2 1.3 2.1 2.8 0.9 1.5 1.4 3.2 0.5 1.7 0.6 3.5c0 4.4-3.1 6.1-6.8 4q-1.5-1-2.8-2.3-1.2-1.3-2.1-2.8-0.9-1.6-1.4-3.3-0.5-1.7-0.6-3.5c0-4.3 3.1-6.1 6.9-3.9q1.4 1 2.7 2.3z"/>
		<path id="Layer" class="s15" d="m322.9 52.2q0.4 0.4 0.7 0.9 0.3 0.5 0.4 1.1 0.2 0.5 0.2 1.1c0 1.4-1 2-2.2 1.3q-0.5-0.4-0.9-0.8-0.4-0.4-0.7-0.9-0.2-0.5-0.4-1-0.2-0.6-0.2-1.2c0-1.4 1-2 2.2-1.3q0.5 0.4 0.9 0.8z"/>
		<path id="Layer" class="s15" d="m318.1 59.3c0-2.4 1.7-3.3 3.7-2.1l1.2 0.7q0.8 0.5 1.5 1.2 0.6 0.7 1.1 1.5 0.5 0.8 0.7 1.7 0.3 0.9 0.4 1.9v0.6q-0.6 0.1-1.1 0.2-0.6 0-1.1-0.1-0.6-0.1-1.1-0.3-0.5-0.2-0.9-0.5-0.7-0.4-1.3-0.9-0.6-0.5-1.1-1-0.6-0.6-1.1-1.2-0.4-0.6-0.9-1.2z"/>
		<path id="Layer" class="s6" d="m334.9 56.3l10.7 6.2q0.2 0.1 0.4 0.3 0.2 0.2 0.4 0.5 0.1 0.2 0.2 0.5 0.1 0.3 0.1 0.6c0 0.7-0.5 0.9-1.1 0.6l-10.7-6.2q-0.2-0.1-0.4-0.3-0.2-0.2-0.4-0.5-0.1-0.2-0.2-0.5-0.1-0.3-0.1-0.6c0-0.7 0.5-0.9 1.1-0.6z"/>
		<path id="Layer" class="s6" d="m334.9 62.4l17.3 10q0.3 0.2 0.5 0.4 0.2 0.2 0.3 0.4 0.2 0.3 0.3 0.6 0 0.2 0.1 0.5c0 0.7-0.5 1-1.2 0.6l-17.3-10q-0.2-0.2-0.4-0.4-0.2-0.2-0.4-0.4-0.1-0.3-0.2-0.5-0.1-0.3-0.1-0.6c0-0.7 0.5-0.9 1.1-0.6z"/>
		<path id="Layer" class="s6" d="m334.9 67l17.3 10q0.3 0.2 0.5 0.4 0.2 0.2 0.3 0.4 0.2 0.3 0.3 0.5 0 0.3 0.1 0.6c0 0.7-0.5 1-1.2 0.6l-17.3-10q-0.2-0.2-0.4-0.4-0.2-0.2-0.4-0.4-0.1-0.3-0.2-0.6-0.1-0.2-0.1-0.5c0-0.7 0.5-1 1.1-0.6z"/>
		<path id="Layer" class="s6" d="m383.5 120.1v6.7c0 0.6-0.4 0.9-1 0.6l-19-11-1.6-1q-0.3-0.1-0.4-0.3-0.2-0.2-0.4-0.4-0.1-0.2-0.2-0.4 0-0.3 0-0.5v-6.8c0-0.6 0.4-0.8 1-0.5l20.6 11.9q0.2 0.2 0.4 0.3 0.2 0.2 0.3 0.4 0.1 0.3 0.2 0.5 0.1 0.3 0.1 0.5z"/>
		<path id="Layer" class="s6" d="m383.5 84.7v29.1c0 0.6-0.4 0.8-1 0.5l-19-11-1.6-1q-0.3-0.1-0.4-0.3-0.2-0.2-0.4-0.4-0.1-0.2-0.2-0.4 0-0.3 0-0.5v-29c0-0.7 0.4-0.9 1-0.6l20.6 11.9q0.3 0.1 0.4 0.3 0.2 0.2 0.3 0.4 0.1 0.3 0.2 0.5 0.1 0.2 0.1 0.5z"/>
		<path id="Layer" class="s15" d="m361.9 71.1l6.4 3.8q0.3 0.5 0.5 1.1 0.3 0.5 0.4 1.1 0.2 0.6 0.3 1.2 0.1 0.6 0.1 1.2c0 3.3-2.4 4.7-5.3 3q-0.5-0.3-1-0.7-0.5-0.4-0.9-0.8-0.4-0.5-0.8-1-0.4-0.5-0.7-1v-7.3c0-0.7 0.4-0.9 1-0.6z"/>
		<path id="Layer" class="s15" d="m383.5 103.4v10.4c0 0.6-0.4 0.8-1 0.5l-19-11 5.7-12 3.6 7.8 5.8-11.6z"/>
		<path id="Layer" class="s6" d="m312.6 63.6l42.4 24.4q0.3 0.2 0.5 0.4 0.3 0.2 0.5 0.5 0.2 0.3 0.3 0.6 0.1 0.3 0.1 0.6c0 0.8-0.6 1-1.4 0.5l-42.3-24.4q-0.3-0.2-0.6-0.4-0.2-0.3-0.4-0.5-0.2-0.3-0.3-0.6-0.2-0.4-0.2-0.7c0-0.7 0.6-0.9 1.4-0.4z"/>
		<path id="Layer" class="s6" d="m312.6 70.1l42.4 24.4q0.3 0.2 0.5 0.4 0.3 0.2 0.5 0.5 0.2 0.3 0.3 0.6 0.1 0.3 0.1 0.7c0 0.7-0.6 0.9-1.4 0.4l-42.4-24.4q-0.3-0.2-0.5-0.4-0.2-0.2-0.4-0.5-0.2-0.3-0.3-0.6-0.2-0.3-0.2-0.6c0-0.8 0.6-1 1.4-0.5z"/>
		<path id="Layer" class="s6" d="m312.6 76.6l42.4 24.5q0.3 0.1 0.5 0.4 0.3 0.2 0.5 0.5 0.2 0.2 0.3 0.6 0.1 0.3 0.1 0.6c0 0.7-0.6 0.9-1.4 0.5l-42.3-24.5q-0.3-0.1-0.6-0.4-0.2-0.2-0.4-0.5-0.2-0.2-0.3-0.6-0.1-0.3-0.2-0.6c0-0.7 0.6-0.9 1.4-0.5z"/>
		<path id="Layer" class="s6" d="m312.6 83.2l42.4 24.4q0.3 0.2 0.5 0.4 0.3 0.2 0.5 0.5 0.2 0.3 0.3 0.6 0.1 0.3 0.1 0.6c0 0.8-0.6 1-1.4 0.5l-42.3-24.4q-0.3-0.2-0.6-0.4-0.2-0.2-0.4-0.5-0.2-0.3-0.3-0.6-0.1-0.3-0.2-0.6c0-0.8 0.6-1 1.4-0.5z"/>
		<path id="Layer" class="s1" d="m279.6 237.6l-7.2-4.2q-0.3-0.1-0.5-0.4-0.2-0.3-0.3-0.7 0.1-0.4 0.3-0.7 0.2-0.3 0.5-0.4l27.8-16q0.5-0.2 1-0.4 0.5-0.1 1-0.1 0.5 0 0.9 0.1 0.5 0.2 1 0.4l7.1 4.1q0.3 0.2 0.6 0.5 0.2 0.3 0.2 0.7 0 0.3-0.2 0.6-0.3 0.3-0.6 0.5l-27.8 16q-0.4 0.2-0.9 0.3-0.5 0.1-1 0.1-0.5 0-1-0.1-0.5-0.1-0.9-0.3z"/>
		<path id="Layer" class="s6" d="m275.2 231.2l5.4-3.1q0.3-0.1 0.6-0.2 0.4-0.1 0.7-0.1 0.3 0 0.7 0.1 0.3 0.1 0.6 0.2l5.4 3.1q0.2 0.1 0.4 0.3 0.1 0.2 0.1 0.5 0 0.2-0.1 0.4-0.2 0.2-0.4 0.3l-5.4 3.1q-0.3 0.2-0.6 0.3-0.4 0-0.7 0-0.3 0-0.7 0-0.3-0.1-0.6-0.3l-5.4-3.1q-0.2-0.1-0.4-0.3-0.1-0.2-0.1-0.4 0-0.3 0.1-0.5 0.2-0.2 0.4-0.3z"/>
		<path id="Layer" class="s1" d="m279.3 231.6l4.7-1c0.2 0 0.3 0.1 0.2 0.4l-1.4 2.4q0 0.1-0.1 0.1-0.1 0.1-0.2 0.1-0.1 0-0.1 0-0.1 0-0.2 0l-3-1.7c-0.2-0.1-0.1-0.3 0.1-0.3z"/>
		<path id="Layer" class="s6" d="m287.8 225.5l13.3-7.7q0.3-0.1 0.5-0.2 0.3 0 0.5 0 0.3 0 0.5 0 0.3 0.1 0.5 0.2c0.5 0.3 0.5 0.8 0 1.1l-13.3 7.7q-0.3 0.1-0.5 0.2-0.3 0.1-0.5 0.1-0.3 0-0.5-0.1-0.3-0.1-0.5-0.2c-0.6-0.3-0.5-0.8 0-1.1z"/>
		<path id="Layer" class="s6" d="m291.4 227.5l6-3.5q0.2-0.1 0.5-0.2 0.2 0 0.5 0 0.3 0 0.5 0 0.3 0.1 0.5 0.2c0.5 0.3 0.5 0.8-0.1 1.1l-6 3.5q-0.2 0.2-0.5 0.2-0.2 0.1-0.5 0.1-0.2 0-0.5-0.1-0.2 0-0.5-0.2c-0.5-0.2-0.5-0.8 0.1-1.1z"/>
		<path id="Layer" class="s1" d="m266 229.7l-7.1-4.1q-0.4-0.1-0.6-0.4-0.2-0.3-0.2-0.7 0-0.4 0.2-0.7 0.2-0.3 0.6-0.4l27.8-16q0.4-0.3 0.9-0.4 0.5-0.1 1-0.1 0.5 0 1 0.1 0.5 0.1 0.9 0.4l7.1 4.1q0.4 0.1 0.6 0.5 0.2 0.3 0.2 0.6 0 0.4-0.2 0.7-0.2 0.3-0.6 0.5l-27.7 16q-0.5 0.2-1 0.3-0.5 0.1-1 0.1-0.5 0-1-0.1-0.5-0.1-0.9-0.4z"/>
		<path id="Layer" class="s6" d="m261.7 223.4l5.4-3.1q0.3-0.2 0.6-0.2 0.3-0.1 0.7-0.1 0.3 0 0.6 0.1 0.3 0 0.6 0.2l5.4 3.1q0.3 0.1 0.4 0.3 0.2 0.2 0.2 0.5 0 0.2-0.2 0.4-0.1 0.2-0.4 0.3l-5.4 3.1q-0.3 0.2-0.6 0.2-0.3 0.1-0.6 0.1-0.4 0-0.7-0.1-0.3 0-0.6-0.2l-5.4-3.1q-0.2-0.1-0.4-0.3-0.1-0.2-0.1-0.5 0-0.2 0.1-0.4 0.2-0.2 0.4-0.3z"/>
		<path id="Layer" class="s1" d="m265.8 223.7l4.7-0.9c0.2 0 0.3 0.1 0.2 0.3l-1.4 2.5q-0.1 0-0.1 0.1-0.1 0.1-0.2 0.1-0.1 0-0.2 0-0.1 0-0.2-0.1l-2.9-1.6c-0.2-0.2-0.2-0.3 0.1-0.4z"/>
		<path id="Layer" class="s6" d="m274.3 217.7l13.3-7.7q0.2-0.1 0.5-0.2 0.2-0.1 0.5-0.1 0.3 0 0.5 0.1 0.3 0.1 0.5 0.2c0.5 0.3 0.5 0.8-0.1 1.1l-13.3 7.7q-0.2 0.1-0.4 0.2-0.3 0-0.6 0-0.2 0-0.5 0-0.2-0.1-0.5-0.2c-0.5-0.3-0.5-0.8 0.1-1.1z"/>
		<path id="Layer" class="s6" d="m277.9 219.7l6-3.5q0.2-0.1 0.4-0.2 0.3-0.1 0.6-0.1 0.2 0 0.5 0.1 0.2 0.1 0.5 0.2c0.5 0.3 0.5 0.8-0.1 1.1l-6 3.5q-0.2 0.1-0.5 0.2-0.2 0.1-0.5 0.1-0.3 0-0.5-0.1-0.3-0.1-0.5-0.2c-0.5-0.3-0.5-0.8 0.1-1.1z"/>
		<path id="Layer" class="s1" d="m469.3 230.8q-0.6 0.1-1.3 0.1-0.6 0-1.2-0.1-0.6-0.2-1.2-0.5l-34.6-20c-1.3-0.7-1.3-2 0-2.7l8.9-5.2q0.5-0.3 1.1-0.5 0.6-0.1 1.3-0.1 0.6 0 1.2 0.1 0.6 0.2 1.2 0.5l34.6 20c1.3 0.8 1.3 2 0 2.8l-8.9 5.1q-0.5 0.3-1.1 0.5z"/>
		<path id="Layer" class="s6" d="m451.8 208.8q0.1 0.2 0.1 0.5 0 0.3-0.1 0.6-0.2 0.2-0.5 0.3l-6.7 3.9q-0.4 0.2-0.8 0.3-0.4 0.1-0.8 0.1-0.4 0-0.8-0.1-0.4-0.1-0.8-0.3l-6.8-3.9q-0.2-0.1-0.4-0.3-0.1-0.3-0.1-0.6 0-0.3 0.1-0.5 0.2-0.3 0.4-0.4l6.8-3.9q0.4-0.2 0.8-0.3 0.4-0.1 0.8-0.1 0.4 0 0.8 0.1 0.4 0.1 0.8 0.3l6.7 3.9q0.3 0.1 0.5 0.4z"/>
		<path id="Layer" class="s1" d="m443.1 207.4q0.2 0 0.4 0 0.2 0.1 0.4 0.2 0.2 0.1 0.3 0.3l1.3 2.2c0.4 0.6 0.1 0.9-0.5 0.8l-5-1c-0.6-0.2-0.6-0.5-0.1-0.8l2.7-1.6q0.2-0.1 0.5-0.1z"/>
		<path id="Layer" class="s6" d="m473.8 224.5q-0.3 0.2-0.6 0.2-0.3 0.1-0.7 0.1-0.3 0-0.6-0.1-0.3 0-0.6-0.2l-16.6-9.6c-0.7-0.4-0.7-1-0.1-1.4q0.3-0.1 0.6-0.2 0.3-0.1 0.7-0.1 0.3 0 0.6 0.1 0.3 0.1 0.6 0.2l16.6 9.6c0.7 0.4 0.7 1 0.1 1.4z"/>
		<path id="Layer" class="s6" d="m460.3 221.8q-0.2 0.2-0.6 0.3-0.3 0-0.6 0-0.3 0-0.6 0-0.4-0.1-0.6-0.3l-7.5-4.3c-0.7-0.4-0.8-1-0.1-1.5q0.3-0.1 0.6-0.2 0.3 0 0.6 0 0.3 0 0.7 0 0.3 0.1 0.6 0.2l7.5 4.4c0.7 0.4 0.7 1.1 0 1.4z"/>
		<path id="Layer" class="s1" d="m445.8 244.1q-0.6 0.1-1.2 0.1-0.6 0-1.2-0.1-0.7-0.2-1.2-0.4l-34.7-20c-1.3-0.8-1.3-2 0-2.8l8.9-5.2q0.6-0.3 1.2-0.4 0.6-0.2 1.2-0.2 0.6 0 1.2 0.2 0.7 0.1 1.2 0.4l34.7 20c1.3 0.8 1.3 2 0 2.8l-8.9 5.2q-0.6 0.2-1.2 0.4z"/>
		<path id="Layer" class="s6" d="m424.5 225.5q-1.1 0.6-2.4 0.9-1.2 0.3-2.5 0.3-1.3 0-2.6-0.3-1.2-0.3-2.4-0.9c-2.7-1.6-2.7-4.2 0-5.7q1.2-0.6 2.4-0.9 1.3-0.3 2.6-0.3 1.3 0 2.5 0.3 1.3 0.3 2.4 0.9c2.8 1.6 2.8 4.1 0 5.7z"/>
		<path id="Layer" class="s6" d="m450.4 237.8q-0.3 0.2-0.6 0.3-0.4 0-0.7 0-0.3 0-0.6 0-0.3-0.1-0.6-0.3l-16.6-9.5c-0.7-0.4-0.7-1-0.1-1.5q0.3-0.1 0.6-0.2 0.3-0.1 0.7-0.1 0.3 0 0.6 0.1 0.3 0.1 0.6 0.2l16.6 9.6c0.7 0.4 0.7 1.1 0.1 1.4z"/>
		<path id="Layer" class="s6" d="m436.9 235.2q-0.3 0.1-0.6 0.2-0.3 0.1-0.6 0.1-0.3 0-0.6-0.1-0.4-0.1-0.6-0.2l-7.5-4.4c-0.7-0.4-0.8-1-0.1-1.4q0.3-0.2 0.6-0.2 0.3-0.1 0.6-0.1 0.3 0 0.6 0.1 0.4 0 0.7 0.2l7.5 4.3c0.7 0.4 0.7 1.1 0 1.5z"/>
		<path id="Layer" class="s1" d="m416.6 224.1l-0.3-0.7c-0.4-0.9-0.7-2.1 0.5-2.8q0.4-0.2 0.8-0.3 0.3-0.1 0.7-0.1 0.4 0 0.8 0.1 0.4 0.1 0.7 0.3c0.7 0.4 0.8 0.9 0.5 1.4q0.2-0.1 0.5-0.1 0.3-0.1 0.7 0 0.3 0 0.5 0.1 0.3 0.1 0.6 0.2 0.3 0.1 0.5 0.3 0.1 0.3 0.1 0.6 0 0.3-0.1 0.5-0.2 0.2-0.5 0.3c-1.2 0.7-3.2 0.6-4.8 0.3z"/>
	</g>
</svg>